<svg xmlns="http://www.w3.org/2000/svg" xmlns:xlink="http://www.w3.org/1999/xlink" viewBox="0 0 2000 1500"><defs><style>.cls-1{fill:none;}.cls-2{fill:#fcfcfc;}.cls-2,.cls-3,.cls-4,.cls-5,.cls-6,.cls-7,.cls-8,.cls-9{stroke:#fff;stroke-width:0.5px;}.cls-3{fill:#fafafa;}.cls-4{fill:#f7f7f7;}.cls-5{fill:#f5f5f5;}.cls-6{fill:#f2f2f2;}.cls-10,.cls-7{fill:#fff;}.cls-8{fill:#efefef;}.cls-9{fill:#e1ba59;}.cls-11{fill:url(#a);}.cls-12{fill:url(#b);}.cls-13{fill:url(#h);}.cls-14{fill:url(#c);}.cls-15{fill:url(#d);}.cls-16{fill:url(#e);}.cls-17{fill:url(#f);}.cls-18{fill:url(#g);}</style><pattern id="a" data-name="a" width="3" height="3" patternTransform="matrix(12.45, 0, 0, -12.45, -11175.57, 9256.56)" patternUnits="userSpaceOnUse" viewBox="0 0 3 3"><rect class="cls-1" width="3" height="3"/><rect id="s" class="cls-2" width="1" height="1"/><rect class="cls-2" x="1" width="1" height="1"/><rect class="cls-3" x="2" width="1" height="1"/><rect class="cls-3" y="2" width="1" height="1"/><rect class="cls-4" x="2" y="2" width="1" height="1"/><rect class="cls-4" x="1" y="1" width="1" height="1"/></pattern><pattern id="b" data-name="b" width="7" height="11" patternTransform="matrix(12.45, 0, 0, -12.45, -11175.57, 9144.51)" patternUnits="userSpaceOnUse" viewBox="0 0 7 11"><rect class="cls-1" width="7" height="11"/><rect id="s-2" data-name="s" class="cls-5" y="10" width="1" height="1"/><rect class="cls-5" y="5" width="1" height="1"/><rect class="cls-5" x="1" width="1" height="1"/><rect class="cls-5" x="2" y="9" width="1" height="1"/><rect class="cls-5" x="2" y="6" width="1" height="1"/><rect class="cls-5" x="3" y="2" width="1" height="1"/><rect class="cls-5" x="4" y="7" width="1" height="1"/><rect class="cls-5" x="4" y="3" width="1" height="1"/><rect class="cls-5" x="5" y="8" width="1" height="1"/><rect class="cls-5" x="5" y="4" width="1" height="1"/><rect class="cls-5" x="6" y="1" width="1" height="1"/></pattern><pattern id="h" data-name="h" width="5" height="13" patternTransform="matrix(12.45, 0, 0, -12.45, -11175.57, 9244.11)" patternUnits="userSpaceOnUse" viewBox="0 0 5 13"><rect class="cls-1" width="5" height="13"/><rect id="s-3" data-name="s" class="cls-5" y="7" width="1" height="1"/><rect class="cls-5" y="4" width="1" height="1"/><rect class="cls-5" x="1" y="11" width="1" height="1"/><rect class="cls-5" x="1" y="3" width="1" height="1"/><rect class="cls-5" x="1" width="1" height="1"/><rect class="cls-5" x="2" y="12" width="1" height="1"/><rect class="cls-5" x="2" y="8" width="1" height="1"/><rect class="cls-5" x="3" y="10" width="1" height="1"/><rect class="cls-5" x="3" y="6" width="1" height="1"/><rect class="cls-5" x="3" y="1" width="1" height="1"/><rect class="cls-5" x="4" y="9" width="1" height="1"/><rect class="cls-5" x="4" y="5" width="1" height="1"/><rect class="cls-5" x="4" y="2" width="1" height="1"/></pattern><pattern id="c" data-name="c" width="17" height="13" patternTransform="matrix(12.45, 0, 0, -12.45, -11175.57, 9244.11)" patternUnits="userSpaceOnUse" viewBox="0 0 17 13"><rect class="cls-1" width="17" height="13"/><rect id="s-4" data-name="s" class="cls-6" y="1" width="1" height="1"/><rect class="cls-6" x="2" y="3" width="1" height="1"/><rect class="cls-6" x="5" width="1" height="1"/><rect class="cls-6" x="9" y="8" width="1" height="1"/><rect class="cls-6" x="12" y="11" width="1" height="1"/><rect class="cls-6" x="16" y="6" width="1" height="1"/></pattern><pattern id="d" data-name="d" width="19" height="17" patternTransform="matrix(12.45, 0, 0, -12.45, -11175.57, 9219.21)" patternUnits="userSpaceOnUse" viewBox="0 0 19 17"><rect class="cls-1" width="19" height="17"/><rect id="s-5" data-name="s" class="cls-7" y="7" width="1" height="1"/><rect class="cls-7" x="16" y="11" width="1" height="1"/><rect class="cls-7" x="14" y="14" width="1" height="1"/><rect class="cls-7" x="11" y="5" width="1" height="1"/><rect class="cls-7" x="6" y="2" width="1" height="1"/><rect class="cls-8" x="3" y="3" width="1" height="1"/><rect class="cls-8" x="9" y="9" width="1" height="1"/><rect class="cls-8" x="13" y="6" width="1" height="1"/><rect class="cls-8" x="15" y="12" width="1" height="1"/><rect class="cls-8" x="18" y="15" width="1" height="1"/></pattern><pattern id="e" data-name="e" width="47" height="53" patternTransform="matrix(12.45, 0, 0, -12.45, -11175.57, 8932.86)" patternUnits="userSpaceOnUse" viewBox="0 0 47 53"><rect class="cls-1" width="47" height="53"/><rect id="s-6" data-name="s" class="cls-9" x="2" y="47" width="1" height="1"/><rect class="cls-9" x="16" y="14" width="1" height="1"/><rect class="cls-9" x="46" y="10" width="1" height="1"/><rect class="cls-9" x="29" y="32" width="1" height="1"/></pattern><pattern id="f" data-name="f" width="59" height="71" patternTransform="matrix(12.45, 0, 0, -12.45, -11175.57, 8534.46)" patternUnits="userSpaceOnUse" viewBox="0 0 59 71"><rect class="cls-1" width="59" height="71"/><rect id="s-7" data-name="s" class="cls-9" x="33" y="57" width="1" height="1"/><rect class="cls-9" x="27" y="16" width="1" height="1"/><rect class="cls-9" x="55" y="15" width="1" height="1"/></pattern><pattern id="g" data-name="g" width="139" height="97" patternTransform="matrix(12.45, 0, 0, -12.45, -11175.57, 8148.51)" patternUnits="userSpaceOnUse" viewBox="0 0 139 97"><rect class="cls-1" width="139" height="97"/><rect id="s-8" data-name="s" class="cls-9" x="11" y="88" width="1" height="1"/><rect class="cls-9" x="51" y="83" width="1" height="1"/><rect class="cls-9" x="17" y="23" width="1" height="1"/><rect class="cls-9" x="99" y="39" width="1" height="1"/></pattern></defs><title>Asset 3</title><g id="Layer_2" data-name="Layer 2"><g id="Layer_1-2" data-name="Layer 1"><rect class="cls-10" width="2000" height="1500"/><rect class="cls-11" width="2000" height="1500"/><rect class="cls-12" width="2000" height="1500"/><rect class="cls-13" width="2000" height="1500"/><rect class="cls-14" width="2000" height="1500"/><rect class="cls-15" width="2000" height="1500"/><rect class="cls-16" width="2000" height="1500"/><rect class="cls-17" width="2000" height="1500"/><rect class="cls-18" width="2000" height="1500"/></g></g></svg>