<svg xmlns="http://www.w3.org/2000/svg" xmlns:xlink="http://www.w3.org/1999/xlink" viewBox="0 0 2444.07 1477.53"><defs><style>.cls-1{fill:none;}.cls-2{clip-path:url(#clip-path);}.cls-3{fill:url(#linear-gradient);}.cls-4{clip-path:url(#clip-path-3);}.cls-5{fill:url(#linear-gradient-2);}.cls-6{clip-path:url(#clip-path-4);}.cls-7{fill:url(#linear-gradient-3);}.cls-8{clip-path:url(#clip-path-5);}.cls-9{fill:url(#linear-gradient-4);}.cls-10{clip-path:url(#clip-path-6);}.cls-11{fill:url(#linear-gradient-5);}.cls-12{clip-path:url(#clip-path-7);}.cls-13{fill:url(#linear-gradient-6);}.cls-14{clip-path:url(#clip-path-8);}.cls-15{fill:url(#linear-gradient-7);}.cls-16{clip-path:url(#clip-path-9);}.cls-17{fill:url(#linear-gradient-8);}.cls-18{clip-path:url(#clip-path-10);}.cls-19{fill:url(#linear-gradient-9);}.cls-20{clip-path:url(#clip-path-11);}.cls-21{fill:url(#linear-gradient-10);}.cls-22{clip-path:url(#clip-path-12);}.cls-23{fill:url(#linear-gradient-11);}.cls-24{clip-path:url(#clip-path-13);}.cls-25{fill:url(#linear-gradient-12);}.cls-26{clip-path:url(#clip-path-14);}.cls-27{fill:url(#linear-gradient-13);}.cls-28{clip-path:url(#clip-path-15);}.cls-29{fill:url(#linear-gradient-14);}.cls-30{clip-path:url(#clip-path-16);}.cls-31{fill:url(#linear-gradient-15);}.cls-32{clip-path:url(#clip-path-17);}.cls-33{fill:url(#linear-gradient-16);}.cls-34{clip-path:url(#clip-path-18);}.cls-35{fill:url(#linear-gradient-17);}.cls-36{clip-path:url(#clip-path-19);}.cls-37{fill:url(#linear-gradient-18);}.cls-38{clip-path:url(#clip-path-20);}.cls-39{fill:url(#linear-gradient-19);}.cls-40{clip-path:url(#clip-path-22);}.cls-41{clip-path:url(#clip-path-23);}.cls-42{fill:url(#linear-gradient-20);}.cls-43{clip-path:url(#clip-path-26);}.cls-44{fill:url(#linear-gradient-21);}.cls-45{clip-path:url(#clip-path-29);}.cls-46{fill:url(#linear-gradient-22);}.cls-47{clip-path:url(#clip-path-32);}.cls-48{fill:url(#linear-gradient-23);}.cls-49{clip-path:url(#clip-path-35);}.cls-50{fill:url(#linear-gradient-24);}.cls-51{clip-path:url(#clip-path-38);}.cls-52{fill:url(#linear-gradient-25);}.cls-53{clip-path:url(#clip-path-41);}.cls-54{fill:url(#linear-gradient-26);}.cls-55{fill:url(#linear-gradient-27);}.cls-56{fill:url(#linear-gradient-28);}.cls-57{fill:url(#linear-gradient-29);}.cls-58{fill:url(#linear-gradient-30);}.cls-59{fill:url(#linear-gradient-31);}.cls-60{fill:url(#linear-gradient-32);}.cls-61{fill:url(#linear-gradient-33);}.cls-62{clip-path:url(#clip-path-45);}.cls-63{clip-path:url(#clip-path-46);}.cls-64{fill:url(#linear-gradient-34);}.cls-65{clip-path:url(#clip-path-49);}.cls-66{fill:url(#linear-gradient-35);}.cls-67{clip-path:url(#clip-path-52);}.cls-68{fill:url(#linear-gradient-36);}.cls-69{clip-path:url(#clip-path-55);}.cls-70{fill:url(#linear-gradient-37);}.cls-71{clip-path:url(#clip-path-58);}.cls-72{fill:url(#linear-gradient-38);}.cls-73{fill:url(#linear-gradient-39);}.cls-74{fill:url(#linear-gradient-40);}.cls-75{fill:url(#linear-gradient-41);}.cls-76{fill:url(#linear-gradient-42);}.cls-77{fill:url(#linear-gradient-43);}</style><clipPath id="clip-path" transform="translate(603.74 413.84)"><rect class="cls-1" width="540" height="540"/></clipPath><linearGradient id="linear-gradient" x1="-995.41" y1="1128.55" x2="-994.41" y2="1128.55" gradientTransform="matrix(0, 723.58, 723.58, 0, -816329.57, 720173.16)" gradientUnits="userSpaceOnUse"><stop offset="0" stop-color="#270d0f"/><stop offset="1" stop-color="#000001"/></linearGradient><clipPath id="clip-path-3" transform="translate(603.74 413.84)"><path class="cls-1" d="M167.94,242.11a18.58,18.58,0,0,0,18.55,18.61,19.07,19.07,0,0,0,11.78-4.13c.26-.21,4.4-3.82,5.83-4.77v8.9h2.39V250.06c7.42-4.93,15.21-8.58,24.17-8.95v19.61H233V223.61h-2.34v16.33A44.84,44.84,0,0,0,206.49,248V223.61H204.1v26.14c-6.2,4.82-6.52,5.14-7.11,5.62a18.89,18.89,0,0,1-11.08,4.13c-8.64,0-15.64-7.79-15.64-17.39s7-17.44,15.64-17.44A14.72,14.72,0,0,1,197.1,230h3.61a18.59,18.59,0,0,0-32.77,12.09"/></clipPath><linearGradient id="linear-gradient-2" x1="-993.62" y1="1131.15" x2="-992.62" y2="1131.15" gradientTransform="matrix(0, 242.72, 242.72, 0, -274349.26, 241364.4)" gradientUnits="userSpaceOnUse"><stop offset="0" stop-color="#a7752a"/><stop offset="0.19" stop-color="#c48b35"/><stop offset="0.34" stop-color="#feda64"/><stop offset="0.35" stop-color="#f2cc5c"/><stop offset="0.41" stop-color="#c89b41"/><stop offset="0.46" stop-color="#af7d30"/><stop offset="0.48" stop-color="#a5722a"/><stop offset="0.51" stop-color="#9f6d29"/><stop offset="0.55" stop-color="#906025"/><stop offset="0.57" stop-color="#865823"/><stop offset="0.66" stop-color="#613f1a"/><stop offset="0.77" stop-color="#392510"/><stop offset="0.79" stop-color="#482f14"/><stop offset="0.86" stop-color="#754d1f"/><stop offset="0.9" stop-color="#865823"/><stop offset="1" stop-color="#d4983a"/></linearGradient><clipPath id="clip-path-4" transform="translate(603.74 413.84)"><rect class="cls-1" x="300.63" y="223.6" width="2.44" height="37.12"/></clipPath><linearGradient id="linear-gradient-3" x1="-993.62" y1="1131.17" x2="-992.62" y2="1131.17" gradientTransform="matrix(0, 242.72, 242.72, 0, -274250.76, 241274.14)" xlink:href="#linear-gradient-2"/><clipPath id="clip-path-5" transform="translate(603.74 413.84)"><path class="cls-1" d="M309.54,242.22a18.64,18.64,0,0,0,31.66,13.31h-2.5c-2.75,2.6-7.37,4.08-11.24,4.08-8.53,0-15.48-7.74-15.48-17.39s6.95-17.39,15.48-17.39a15.05,15.05,0,0,1,11.3,5.3h3.6a18.65,18.65,0,0,0-32.82,12.09"/></clipPath><linearGradient id="linear-gradient-4" x1="-993.62" y1="1131.16" x2="-992.62" y2="1131.16" gradientTransform="matrix(0, 242.72, 242.72, 0, -274225.94, 241252.33)" xlink:href="#linear-gradient-2"/><clipPath id="clip-path-6" transform="translate(603.74 413.84)"><polygon class="cls-1" points="347.46 223.6 347.46 260.72 372.06 260.72 372.06 259.5 349.95 259.5 349.95 242.8 361.51 242.8 361.51 241.63 349.95 241.63 349.95 224.83 372.06 224.83 372.06 223.6 347.46 223.6"/></clipPath><linearGradient id="linear-gradient-5" x1="-993.62" y1="1131.17" x2="-992.62" y2="1131.17" gradientTransform="matrix(0, 242.72, 242.72, 0, -274192.86, 241222.41)" xlink:href="#linear-gradient-2"/><clipPath id="clip-path-7" transform="translate(603.74 413.84)"><polygon class="cls-1" points="261.19 287.24 243.69 324.36 246.19 324.36 262.41 289.79 278.64 324.36 279.8 324.36 263 288.52 263.63 287.24 261.19 287.24"/></clipPath><linearGradient id="linear-gradient-6" x1="-993.62" y1="1131.18" x2="-992.62" y2="1131.18" gradientTransform="matrix(0, 242.72, 242.72, 0, -274294.77, 241344.68)" xlink:href="#linear-gradient-2"/><clipPath id="clip-path-8" transform="translate(603.74 413.84)"><polygon class="cls-1" points="233.11 287.24 216.89 321.81 200.66 287.24 198.17 287.24 215.66 324.36 218.1 324.36 217.47 323.09 234.28 287.24 233.11 287.24"/></clipPath><linearGradient id="linear-gradient-7" x1="-993.62" y1="1131.15" x2="-992.62" y2="1131.15" gradientTransform="matrix(0, 242.72, 242.72, 0, -274332.74, 241385.34)" xlink:href="#linear-gradient-2"/><clipPath id="clip-path-9" transform="translate(603.74 413.84)"><polygon class="cls-1" points="247.61 287.24 231.39 321.81 215.16 287.24 212.67 287.24 230.17 324.36 232.61 324.36 231.97 323.09 248.78 287.24 247.61 287.24"/></clipPath><linearGradient id="linear-gradient-8" x1="-993.62" y1="1131.15" x2="-992.62" y2="1131.15" gradientTransform="matrix(0, 242.72, 242.72, 0, -274318.23, 241372.38)" xlink:href="#linear-gradient-2"/><clipPath id="clip-path-10" transform="translate(603.74 413.84)"><polygon class="cls-1" points="185.44 287.24 167.94 324.36 170.43 324.36 186.66 289.79 202.88 324.36 204.05 324.36 187.24 288.52 187.88 287.24 185.44 287.24"/></clipPath><linearGradient id="linear-gradient-9" x1="-993.62" y1="1131.18" x2="-992.62" y2="1131.18" gradientTransform="matrix(0, 242.72, 242.72, 0, -274370.48, 241412.4)" xlink:href="#linear-gradient-2"/><clipPath id="clip-path-11" transform="translate(603.74 413.84)"><path class="cls-1" d="M288.6,288.46h8.7c3.82,0,6.89,4.78,6.89,10.24,0,4.87-2.81,9.49-6.15,9.91-3.6.48-7.37,1-9.44,4.19Zm-2.43-1.22v37.12h2.43v-8a6.27,6.27,0,0,1,4-5.4l11.83,13.41h2.44l-12-13.68h-1.59a12.88,12.88,0,0,1,5.25-.85c4.18,0,8.06-4.88,8.06-11.13s-3.56-11.46-8-11.46Z"/></clipPath><linearGradient id="linear-gradient-10" x1="-993.62" y1="1131.17" x2="-992.62" y2="1131.17" gradientTransform="matrix(0, 242.72, 242.72, 0, -274257.88, 241313.7)" xlink:href="#linear-gradient-2"/><clipPath id="clip-path-12" transform="translate(603.74 413.84)"><path class="cls-1" d="M318.33,321.76v-33.3h6c8.59,0,15.54,7.8,15.54,17.39s-7,17.29-15.54,17.29a12.31,12.31,0,0,1-6-1.38m-2.5-34.52v37.12h8.06a18.56,18.56,0,0,0,0-37.12Z"/></clipPath><linearGradient id="linear-gradient-11" x1="-993.62" y1="1131.18" x2="-992.62" y2="1131.18" gradientTransform="matrix(0, 242.72, 242.72, 0, -274227, 241284.49)" xlink:href="#linear-gradient-2"/><clipPath id="clip-path-13" transform="translate(603.74 413.84)"><path class="cls-1" d="M348.94,296.31c0,6.36,8.27,9.6,12.68,11.45,6.31,2.76,7.95,5.31,7.95,8.33,0,5.73-3.82,7.16-8.91,7.16a21.39,21.39,0,0,1-11.87-4v1.59a23.05,23.05,0,0,0,12.46,3.61c4.29,0,10.81-1.91,10.81-8.81,0-6.2-6.36-8.9-11-10.87-5.09-2.12-9.65-4.87-9.65-9.7,0-5.14,6.3-6.63,10.12-6.63,2.28,0,5.41,1.38,7.06,2.33v-1.16a17,17,0,0,0-8-2.44c-6.78,0-11.72,3.34-11.72,9.12"/></clipPath><linearGradient id="linear-gradient-12" x1="-993.62" y1="1131.17" x2="-992.62" y2="1131.17" gradientTransform="matrix(0, 242.72, 242.72, 0, -274192.75, 241256.57)" xlink:href="#linear-gradient-2"/><clipPath id="clip-path-14" transform="translate(603.74 413.84)"><path class="cls-1" d="M258.15,248.05a2.6,2.6,0,0,0-.75.53v3.21a4.65,4.65,0,0,0,.75.5,2.1,2.1,0,0,0,.91.24c1.08,0,1.62-.78,1.62-2.32a3.34,3.34,0,0,0-.39-1.72,1.42,1.42,0,0,0-.22-.28,1.27,1.27,0,0,0-.29-.21,1.5,1.5,0,0,0-.72-.17,2.33,2.33,0,0,0-.91.22m-3.1-9.57v0a2.28,2.28,0,0,0,.56,1.64,2,2,0,0,0,1.56.61,2.11,2.11,0,0,0,1.24-.34c-.58-.28-1.16-.59-1.71-.92l-.52-.34c-.39-.29-.76-.59-1.12-.91a1.85,1.85,0,0,0,0,.24m-3.47-5a1.45,1.45,0,0,0-.49.07.71.71,0,0,0-.26.15l0,0a1.29,1.29,0,0,0-.14.55,2.51,2.51,0,0,0,0,.3h1.74c0-.15-.1-.28-.14-.41s-.08-.26-.13-.4v-.06a.6.6,0,0,1-.06-.19v0h-.48Zm4.09,11.43a1.09,1.09,0,0,1,.43-.88,2.09,2.09,0,0,1,.88-.42l.42-.09v3.27a3.12,3.12,0,0,1,1.67-.53,3.32,3.32,0,0,1,2.38,1,4.1,4.1,0,0,1,1,3,5.1,5.1,0,0,1-.29,1.87,3,3,0,0,1-1.86,1.89,3.48,3.48,0,0,1-1.2.21,3.42,3.42,0,0,1-1.66-.56.86.86,0,0,1-.26.37.66.66,0,0,1-.41.14h-1.08Zm-1-19.11c3.78-3.63,9.54-4.28,14.85-3.32a26.11,26.11,0,0,1,7,2.29,14.55,14.55,0,0,1,7.25,7.33,16.93,16.93,0,0,1,1,9.72,18.13,18.13,0,0,1-1.43,4.4c-.17.35-.35.68-.54,1a63.19,63.19,0,0,1-4.94,7.62c-2,2.62-4.35,5.87-7.59,7.06a6.07,6.07,0,0,1-4.18.1,4.77,4.77,0,0,1-2.48-3.18,19.13,19.13,0,0,1-.47-5.34c0-1.95.13-3.89.24-5.82a6.79,6.79,0,0,0-1.29-4.93,7.24,7.24,0,0,0-1.93-1.48l-.07.07a3.87,3.87,0,0,1-2.84,1.15,3.78,3.78,0,0,1-2.84-1.13,3.93,3.93,0,0,1-1-2.86,4.66,4.66,0,0,1,.31-1.77,9.94,9.94,0,0,1-.73-1.06v.53h-2.24v6.26h-1.73V236.2H248v-1.62H249a3.39,3.39,0,0,1,.47-1.77,1.88,1.88,0,0,1,.89-.74,3.84,3.84,0,0,1,1.27-.18h.31a8.75,8.75,0,0,1,2.73-6.1m-14.78,16.41a26.69,26.69,0,1,0,26.69-26.68,26.69,26.69,0,0,0-26.69,26.68"/></clipPath><linearGradient id="linear-gradient-13" x1="-993.62" y1="1131.17" x2="-992.62" y2="1131.17" gradientTransform="matrix(0, 242.72, 242.72, 0, -274286.27, 241305.52)" xlink:href="#linear-gradient-2"/><clipPath id="clip-path-15" transform="translate(603.74 413.84)"><path class="cls-1" d="M252.39,234.58a9.08,9.08,0,0,0,.53,1.09v-1.09Zm-.33-1.09h0a1.53,1.53,0,0,0,.48-.11,1.42,1.42,0,0,0,.55-.42,3.59,3.59,0,0,0,.32-.44,1.79,1.79,0,0,0,.18-.33,14.54,14.54,0,0,0-1.69-.29,6.52,6.52,0,0,0,.16,1.58"/></clipPath><linearGradient id="linear-gradient-14" x1="-993.62" y1="1131.17" x2="-992.62" y2="1131.17" gradientTransform="matrix(0, 242.72, 242.72, 0, -274300.76, 241312.28)" xlink:href="#linear-gradient-2"/><clipPath id="clip-path-16" transform="translate(603.74 413.84)"><path class="cls-1" d="M254.34,235.66a3.26,3.26,0,0,0-.7,1.07h0a10.53,10.53,0,0,0,1.42,1.49,2.21,2.21,0,0,1,.55-1.37,2,2,0,0,1,1.56-.61,2.06,2.06,0,0,1,1.56.61,2.38,2.38,0,0,1,.56,1.64,2.34,2.34,0,0,1-.55,1.64,2.92,2.92,0,0,1-.32.28c.56.27,1.12.54,1.66.84a4,4,0,0,0,.93-2.76,4,4,0,0,0-1-2.84,4.1,4.1,0,0,0-5.67,0"/></clipPath><linearGradient id="linear-gradient-15" x1="-993.62" y1="1131.16" x2="-992.62" y2="1131.16" gradientTransform="matrix(0, 242.72, 242.72, 0, -274294.76, 241311.24)" xlink:href="#linear-gradient-2"/><clipPath id="clip-path-17" transform="translate(603.74 413.84)"><path class="cls-1" d="M264.46,240.15a2.47,2.47,0,0,1-.56-1.65,2.41,2.41,0,0,1,.56-1.64,2.06,2.06,0,0,1,1.57-.61,2,2,0,0,1,1.55.62,2.29,2.29,0,0,1,.56,1.63,2.37,2.37,0,0,1-.55,1.65,2,2,0,0,1-1.56.6,2.06,2.06,0,0,1-1.57-.6m-1.27-4.49a4.53,4.53,0,0,0,0,5.7,4.09,4.09,0,0,0,5.67,0,4.5,4.5,0,0,0,0-5.68,3.64,3.64,0,0,0-2.82-1.14,3.74,3.74,0,0,0-2.85,1.14"/></clipPath><linearGradient id="linear-gradient-16" x1="-993.62" y1="1131.17" x2="-992.62" y2="1131.17" gradientTransform="matrix(0, 242.72, 242.72, 0, -274286.65, 241304.06)" xlink:href="#linear-gradient-2"/><clipPath id="clip-path-18" transform="translate(603.74 413.84)"><path class="cls-1" d="M272.69,238.48a3.21,3.21,0,0,1,.4-1.71,1.35,1.35,0,0,1,1.23-.66,2.13,2.13,0,0,1,.91.22,2,2,0,0,1,.73.53v3.21a3.83,3.83,0,0,1-.73.5,2.11,2.11,0,0,1-.91.23c-1.09,0-1.63-.77-1.63-2.32m3.27-3.41a3.05,3.05,0,0,0-1.65-.53,3.19,3.19,0,0,0-2.36,1,4,4,0,0,0-1,3,5.51,5.51,0,0,0,.3,1.87,3.07,3.07,0,0,0,.8,1.25,3,3,0,0,0,1.06.65,3.46,3.46,0,0,0,1.21.22,3.53,3.53,0,0,0,1.65-.57.75.75,0,0,0,.26.35.58.58,0,0,0,.41.15h1.06v-9.26a1.06,1.06,0,0,0-.18-.6,2,2,0,0,0-.42-.41,3.25,3.25,0,0,0-.53-.23,2.33,2.33,0,0,0-.41-.11l-.2,0Z"/></clipPath><linearGradient id="linear-gradient-17" x1="-993.62" y1="1131.16" x2="-992.62" y2="1131.16" gradientTransform="matrix(0, 242.72, 242.72, 0, -274278.45, 241295.48)" xlink:href="#linear-gradient-2"/><clipPath id="clip-path-19" transform="translate(603.74 413.84)"><path class="cls-1" d="M265.51,252.36a1.11,1.11,0,0,1-.28-.79.84.84,0,0,1,.38-.81,2,2,0,0,1,1.07-.23h1.23v1.38a2.59,2.59,0,0,1-.69.52,1.75,1.75,0,0,1-.9.25,1,1,0,0,1-.81-.32m-1.93-5.48.24.35a2.26,2.26,0,0,0,.73.66,1.42,1.42,0,0,0,1,.24,12.92,12.92,0,0,1,1.39-.15,3.3,3.3,0,0,1,.51,0,.38.38,0,0,1,.27.22,1.1,1.1,0,0,1,.12.29q0,.09.06.54h-1.24a3.94,3.94,0,0,0-2.28.61,2.26,2.26,0,0,0-.87,1.93c0,1.76.84,2.62,2.52,2.62A2.46,2.46,0,0,0,267,254a4.43,4.43,0,0,0,.67-.36l.29-.21c.13.49.4.72.79.72h.94v-4.61a4,4,0,0,0-.54-2.38,2.56,2.56,0,0,0-2.16-.92,13.17,13.17,0,0,0-3.36.63"/></clipPath><linearGradient id="linear-gradient-18" x1="-993.62" y1="1131.17" x2="-992.62" y2="1131.17" gradientTransform="matrix(0, 242.72, 242.72, 0, -274286.19, 241309.97)" xlink:href="#linear-gradient-2"/><clipPath id="clip-path-20" transform="translate(603.74 413.84)"><path class="cls-1" d="M275.86,246.3l-1.14,3c-.17.48-.44,1.18-.8,2.1l-2-5.09h-1.84l1.66,4.3,1,2.66a2,2,0,0,0,.22.44,4.18,4.18,0,0,1-1,1.43,1.21,1.21,0,0,0-.25,1.56,1.9,1.9,0,0,0,.29.44,5.9,5.9,0,0,0,2.21-2.2,12.7,12.7,0,0,0,.55-1.24l.19-.51,2.65-6.88Z"/></clipPath><linearGradient id="linear-gradient-19" x1="-993.62" y1="1131.16" x2="-992.62" y2="1131.16" gradientTransform="matrix(0, 242.72, 242.72, 0, -274279.1, 241303.41)" xlink:href="#linear-gradient-2"/><clipPath id="clip-path-22" transform="translate(603.74 413.84)"><rect class="cls-1" x="601.3" width="960" height="540"/></clipPath><clipPath id="clip-path-23" transform="translate(603.74 413.84)"><polygon class="cls-1" points="389.1 88.88 697.9 324.2 737.49 254.26 389.1 88.88"/></clipPath><linearGradient id="linear-gradient-20" x1="-994.37" y1="1129.57" x2="-993.37" y2="1129.57" gradientTransform="matrix(366.57, 213.51, 133.95, -402.51, 214180.62, 667496.38)" xlink:href="#linear-gradient"/><clipPath id="clip-path-26" transform="translate(603.74 413.84)"><polygon class="cls-1" points="697.9 324.2 389.32 715.67 844.71 538.2 697.9 324.2"/></clipPath><linearGradient id="linear-gradient-21" x1="-995.41" y1="1128.73" x2="-994.41" y2="1128.73" gradientTransform="matrix(548.06, 67.99, 366.33, -413.27, 132951.96, 535040.88)" xlink:href="#linear-gradient"/><clipPath id="clip-path-29" transform="translate(603.74 413.84)"><polygon class="cls-1" points="697.9 324.2 389.32 715.67 335.88 515.89 697.9 324.2"/></clipPath><linearGradient id="linear-gradient-22" x1="-995.24" y1="1128.87" x2="-994.24" y2="1128.87" gradientTransform="matrix(490.31, 89.8, 308.59, -391.47, 140528.84, 532179.04)" xlink:href="#linear-gradient"/><clipPath id="clip-path-32" transform="translate(603.74 413.84)"><polygon class="cls-1" points="389.1 88.88 697.9 324.2 271.83 419.1 389.1 88.88"/></clipPath><linearGradient id="linear-gradient-23" x1="-995.18" y1="1128.86" x2="-994.18" y2="1128.86" gradientTransform="matrix(520.56, 155.36, 287.95, -460.65, 193775.45, 675197.82)" xlink:href="#linear-gradient"/><clipPath id="clip-path-35" transform="translate(603.74 413.84)"><polygon class="cls-1" points="697.9 324.2 335.88 515.89 271.83 419.1 697.9 324.2"/></clipPath><linearGradient id="linear-gradient-24" x1="-995.75" y1="1129.37" x2="-994.75" y2="1129.37" gradientTransform="matrix(444.24, -46.77, 364.28, -258.53, 31782.38, 246258.09)" xlink:href="#linear-gradient"/><clipPath id="clip-path-38" transform="translate(603.74 413.84)"><polygon class="cls-1" points="844.71 538.2 389.32 715.67 847.26 603.23 844.71 538.2"/></clipPath><linearGradient id="linear-gradient-25" x1="-996.63" y1="1129.92" x2="-995.63" y2="1129.92" gradientTransform="matrix(479.01, -114.89, 435.4, -230.4, -13478.61, 146897.77)" xlink:href="#linear-gradient"/><clipPath id="clip-path-41" transform="translate(603.74 413.84)"><polygon class="cls-1" points="335.88 515.89 389.32 715.67 180.99 717.34 335.88 515.89"/></clipPath><linearGradient id="linear-gradient-26" x1="-994.04" y1="1130.31" x2="-993.04" y2="1130.31" gradientTransform="matrix(274.85, 116.19, 129.45, -268.86, 127639.93, 420360.39)" xlink:href="#linear-gradient"/><linearGradient id="linear-gradient-27" x1="-993.36" y1="1128.83" x2="-992.36" y2="1128.83" gradientTransform="matrix(350.8, 0, 0, -350.8, 349459.76, 396614.64)" xlink:href="#linear-gradient-2"/><linearGradient id="linear-gradient-28" x1="-994.01" y1="1128.45" x2="-993.01" y2="1128.45" gradientTransform="matrix(456.54, 0, 0, -456.54, 454793.97, 516108.78)" xlink:href="#linear-gradient-2"/><linearGradient id="linear-gradient-29" x1="-993.48" y1="1128.76" x2="-992.48" y2="1128.76" gradientTransform="matrix(366.91, 0, 0, -366.91, 365458.12, 415088.81)" xlink:href="#linear-gradient-2"/><linearGradient id="linear-gradient-30" x1="-993.86" y1="1128.53" x2="-992.86" y2="1128.53" gradientTransform="matrix(427.04, 0, 0, -427.04, 425289.1, 482591.52)" xlink:href="#linear-gradient-2"/><linearGradient id="linear-gradient-31" x1="-993.87" y1="1128.53" x2="-992.87" y2="1128.53" gradientTransform="matrix(428.23, 0, 0, -428.23, 426484.5, 484110.02)" xlink:href="#linear-gradient-2"/><linearGradient id="linear-gradient-32" x1="-994.02" y1="1128.44" x2="-993.02" y2="1128.44" gradientTransform="matrix(458.29, 0, 0, -458.29, 456546.95, 518198.32)" xlink:href="#linear-gradient-2"/><linearGradient id="linear-gradient-33" x1="-991.43" y1="1129.97" x2="-990.43" y2="1129.97" gradientTransform="matrix(209.16, 0, 0, -209.16, 208156.15, 237378.66)" xlink:href="#linear-gradient-2"/><clipPath id="clip-path-45" transform="translate(603.74 413.84)"><rect class="cls-1" x="601.3" y="-604.02" width="960" height="540"/></clipPath><clipPath id="clip-path-46" transform="translate(603.74 413.84)"><polygon class="cls-1" points="697.9 -279.82 389.32 111.65 844.71 -65.81 697.9 -279.82"/></clipPath><linearGradient id="linear-gradient-34" x1="-995.41" y1="1128.73" x2="-994.41" y2="1128.73" gradientTransform="matrix(548.06, 67.99, 366.33, -413.27, 132951.96, 534436.86)" xlink:href="#linear-gradient"/><clipPath id="clip-path-49" transform="translate(603.74 413.84)"><polygon class="cls-1" points="697.9 -279.82 389.32 111.65 335.88 -88.12 697.9 -279.82"/></clipPath><linearGradient id="linear-gradient-35" x1="-995.24" y1="1128.87" x2="-994.24" y2="1128.87" gradientTransform="matrix(490.31, 89.8, 308.59, -391.47, 140528.84, 531575.02)" xlink:href="#linear-gradient"/><clipPath id="clip-path-52" transform="translate(603.74 413.84)"><polygon class="cls-1" points="844.71 -65.81 389.32 111.65 847.26 -0.79 844.71 -65.81"/></clipPath><linearGradient id="linear-gradient-36" x1="-996.63" y1="1129.92" x2="-995.63" y2="1129.92" gradientTransform="matrix(479.01, -114.89, 435.4, -230.4, -13478.61, 146293.76)" xlink:href="#linear-gradient"/><clipPath id="clip-path-55" transform="translate(603.74 413.84)"><polygon class="cls-1" points="389.32 111.65 563.82 326.2 847.26 -0.79 389.32 111.65"/></clipPath><linearGradient id="linear-gradient-37" x1="-995.35" y1="1128.72" x2="-994.35" y2="1128.72" gradientTransform="matrix(530.63, 80.07, 345.27, -410.82, 139434.07, 543941.29)" xlink:href="#linear-gradient"/><clipPath id="clip-path-58" transform="translate(603.74 413.84)"><polygon class="cls-1" points="335.88 -88.12 389.32 111.65 180.99 113.33 335.88 -88.12"/></clipPath><linearGradient id="linear-gradient-38" x1="-994.04" y1="1130.31" x2="-993.04" y2="1130.31" gradientTransform="matrix(274.85, 116.19, 129.45, -268.86, 127639.93, 419756.38)" xlink:href="#linear-gradient"/><linearGradient id="linear-gradient-39" x1="-994.01" y1="1128.45" x2="-993.01" y2="1128.45" gradientTransform="matrix(456.54, 0, 0, -456.54, 454793.97, 515504.76)" xlink:href="#linear-gradient-2"/><linearGradient id="linear-gradient-40" x1="-993.48" y1="1128.76" x2="-992.48" y2="1128.76" gradientTransform="matrix(366.91, 0, 0, -366.91, 365458.12, 414484.79)" xlink:href="#linear-gradient-2"/><linearGradient id="linear-gradient-41" x1="-994.02" y1="1128.44" x2="-993.02" y2="1128.44" gradientTransform="matrix(458.29, 0, 0, -458.29, 456546.95, 517594.3)" xlink:href="#linear-gradient-2"/><linearGradient id="linear-gradient-42" x1="-994.04" y1="1128.43" x2="-993.04" y2="1128.43" gradientTransform="matrix(462.53, 0, 0, -462.53, 460768.12, 522512.08)" xlink:href="#linear-gradient-2"/><linearGradient id="linear-gradient-43" x1="-991.43" y1="1129.97" x2="-990.43" y2="1129.97" gradientTransform="matrix(209.16, 0, 0, -209.16, 208156.15, 236774.64)" xlink:href="#linear-gradient-2"/></defs><title>Asset 1</title><g id="Layer_2" data-name="Layer 2"><g id="Layer_1-2" data-name="Layer 1"><g class="cls-2"><g class="cls-2"><rect class="cls-3" x="-98.74" y="-98.74" width="737.48" height="737.48" transform="translate(505 782.98) rotate(-60.05)"/></g><g class="cls-4"><rect class="cls-5" x="169.19" y="204.65" width="62.55" height="74.87" transform="translate(497.84 726.15) rotate(-63.28)"/></g><g class="cls-6"><rect class="cls-7" x="284.73" y="232.73" width="34.25" height="18.87" transform="translate(553.58 816.76) rotate(-63.28)"/></g><g class="cls-8"><rect class="cls-9" x="301.95" y="219.19" width="48.01" height="46.05" transform="translate(566.8 838.31) rotate(-63.28)"/></g><g class="cls-10"><rect class="cls-11" x="337.65" y="222.83" width="44.22" height="38.66" transform="translate(585.45 868.48) rotate(-63.28)"/></g><g class="cls-12"><rect class="cls-13" x="237.05" y="281.33" width="49.39" height="48.94" transform="translate(474.66 815.96) rotate(-63.28)"/></g><g class="cls-14"><rect class="cls-15" x="191.53" y="281.33" width="49.39" height="48.94" transform="translate(449.6 775.3) rotate(-63.28)"/></g><g class="cls-16"><rect class="cls-17" x="206.03" y="281.33" width="49.39" height="48.94" transform="translate(457.58 788.25) rotate(-63.28)"/></g><g class="cls-18"><rect class="cls-19" x="161.3" y="281.33" width="49.39" height="48.94" transform="translate(432.96 748.29) rotate(-63.28)"/></g><g class="cls-20"><rect class="cls-21" x="275.28" y="288.22" width="42.45" height="35.16" transform="translate(493.79 847.01) rotate(-63.28)"/></g><g class="cls-22"><rect class="cls-23" x="306.55" y="285.62" width="45.07" height="40.37" transform="translate(511.73 876.11) rotate(-63.28)"/></g><g class="cls-24"><rect class="cls-25" x="338.54" y="287.05" width="43.76" height="37.55" transform="translate(528.95 904.12) rotate(-63.28)"/></g><g class="cls-26"><rect class="cls-27" x="230.69" y="206.38" width="71.67" height="71.67" transform="translate(534.09 785.23) rotate(-63.28)"/></g><g class="cls-28"><rect class="cls-29" x="250.68" y="232.19" width="4.12" height="3.21" transform="translate(534.02 768.28) rotate(-63.28)"/></g><g class="cls-30"><rect class="cls-31" x="252.65" y="233.08" width="9.34" height="9.62" transform="translate(532.88 774.63) rotate(-63.28)"/></g><g class="cls-32"><rect class="cls-33" x="260.74" y="233.28" width="10.58" height="10.45" transform="translate(537.13 782.74) rotate(-63.28)"/></g><g class="cls-34"><rect class="cls-35" x="268.03" y="231.73" width="12.6" height="10.84" transform="translate(542.9 789.41) rotate(-63.28)"/></g><g class="cls-36"><rect class="cls-37" x="261.64" y="245.71" width="9.87" height="9.05" transform="translate(526.95 789.69) rotate(-63.28)"/></g><g class="cls-38"><rect class="cls-39" x="267.36" y="245.89" width="13.09" height="11.65" transform="translate(529.66 797.05) rotate(-63.28)"/></g><g class="cls-2"><g class="cls-40"><g class="cls-41"><polygon class="cls-42" points="1049.4 332.74 1406.83 540.93 1284.66 908.02 927.24 699.83 1049.4 332.74"/></g></g></g><g class="cls-2"><g class="cls-40"><g class="cls-43"><polygon class="cls-44" points="1038.18 687.14 1761.08 776.82 1403.33 1180.4 680.43 1090.72 1038.18 687.14"/></g></g></g><g class="cls-2"><g class="cls-40"><g class="cls-45"><polygon class="cls-46" points="985.29 680.1 1571.3 787.42 1255.97 1187.44 669.96 1080.12 985.29 680.1"/></g></g></g><g class="cls-2"><g class="cls-40"><g class="cls-47"><polygon class="cls-48" points="942.56 395.56 1475.61 554.64 1234.65 940.1 701.61 781.02 942.56 395.56"/></g></g></g><g class="cls-2"><g class="cls-40"><g class="cls-49"><polygon class="cls-50" points="875.57 738.04 1693.02 651.97 1301.64 929.73 484.19 1015.8 875.57 738.04"/></g></g></g><g class="cls-2"><g class="cls-40"><g class="cls-51"><polygon class="cls-52" points="993.06 952.04 2444.07 604.02 1451.01 1129.51 0 1477.53 993.06 952.04"/></g></g></g><g class="cls-2"><g class="cls-40"><g class="cls-53"><polygon class="cls-54" points="819.97 856.55 1073.65 963.8 957.83 1204.36 704.14 1097.11 819.97 856.55"/></g></g></g><g class="cls-2"><g class="cls-40"><polygon class="cls-55" points="992.84 502.72 992.84 502.72 1301.64 738.04 1341.23 668.1 992.84 502.72 992.84 502.72 992.84 502.72 1341.23 668.1 1301.64 738.04 992.84 502.72 992.84 502.72"/><polygon class="cls-56" points="1301.64 738.04 1301.64 738.04 993.06 1129.51 1448.45 952.04 1301.64 738.04 1301.64 738.04 1301.64 738.04 1448.45 952.04 993.06 1129.51 1301.64 738.04 1301.64 738.04"/><polygon class="cls-57" points="1301.64 738.04 1302.03 738.35 992.84 1130.6 939.03 929.47 1303.5 736.49 1302.03 738.35 1301.64 738.04 1301.88 738.48 940.2 929.99 993.29 1128.41 1301.25 737.73 1301.64 738.04 1301.88 738.48 1301.64 738.04"/><polygon class="cls-58" points="992.84 502.72 992.84 502.72 1301.64 738.04 875.57 832.94 992.84 502.72 992.84 502.72 992.84 502.72 875.57 832.94 1301.64 738.04 992.84 502.72 992.84 502.72"/><polygon class="cls-59" points="1301.64 738.04 1301.64 738.04 939.62 929.73 875.57 832.94 1301.64 738.04 1301.64 738.04 1301.64 738.04 875.57 832.94 939.62 929.73 1301.64 738.04 1301.64 738.04"/><polygon class="cls-60" points="1448.45 952.04 1448.45 952.04 993.06 1129.51 1451.01 1017.07 1448.45 952.04 1448.45 952.04 1448.45 952.04 1451.01 1017.07 993.06 1129.51 1448.45 952.04 1448.45 952.04"/><polygon class="cls-61" points="939.62 929.73 939.62 929.73 993.06 1129.51 784.73 1131.18 939.62 929.73 939.62 929.73 939.62 929.73 784.73 1131.18 993.06 1129.51 939.62 929.73 939.62 929.73"/></g></g><g class="cls-2"><g class="cls-62"><g class="cls-63"><polygon class="cls-64" points="1038.18 83.13 1761.08 172.8 1403.33 576.38 680.43 486.7 1038.18 83.13"/></g></g></g><g class="cls-2"><g class="cls-62"><g class="cls-65"><polygon class="cls-66" points="985.29 76.08 1571.3 183.41 1255.97 583.43 669.96 476.1 985.29 76.08"/></g></g></g><g class="cls-2"><g class="cls-62"><g class="cls-67"><polygon class="cls-68" points="993.06 348.02 2444.07 0 1451.01 525.49 0 873.51 993.06 348.02"/></g></g></g><g class="cls-2"><g class="cls-62"><g class="cls-69"><polygon class="cls-70" points="1044.6 351.73 1694.89 449.86 1399.46 801.37 749.18 703.24 1044.6 351.73"/></g></g></g><g class="cls-2"><g class="cls-62"><g class="cls-71"><polygon class="cls-72" points="819.97 252.54 1073.65 359.78 957.83 600.34 704.14 493.1 819.97 252.54"/></g></g></g><g class="cls-2"><g class="cls-62"><polygon class="cls-73" points="1301.64 134.02 1301.64 134.02 993.06 525.49 1448.45 348.02 1301.64 134.02 1301.64 134.02 1301.64 134.02 1448.45 348.02 993.06 525.49 1301.64 134.02 1301.64 134.02"/><polygon class="cls-74" points="1301.64 134.02 1302.03 134.33 992.84 526.58 939.03 325.46 1303.5 132.47 1302.03 134.33 1301.64 134.02 1301.88 134.46 940.2 325.97 993.29 524.4 1301.25 133.71 1301.64 134.02 1301.88 134.46 1301.64 134.02"/><polygon class="cls-75" points="1448.45 348.02 1448.45 348.02 993.06 525.49 1451.01 413.05 1448.45 348.02 1448.45 348.02 1448.45 348.02 1451.01 413.05 993.06 525.49 1448.45 348.02 1448.45 348.02"/><polygon class="cls-76" points="993.06 525.49 993.45 525.17 1167.57 739.26 1449.6 413.91 993.18 525.98 993.06 525.49 993.45 525.17 993.06 525.49 992.94 525 1452.41 412.19 1167.55 740.82 992.17 525.19 992.94 525 993.06 525.49"/><polygon class="cls-77" points="939.62 325.71 939.62 325.71 993.06 525.49 784.73 527.16 939.62 325.71 939.62 325.71 939.62 325.71 784.73 527.16 993.06 525.49 939.62 325.71 939.62 325.71"/></g></g></g></g></g></svg>