<svg width="428" height="420" viewBox="0 0 428 420" fill="none" xmlns="http://www.w3.org/2000/svg">
<path d="M427.21 282.2H263.32V187.36H427.21V282.2ZM264.32 281.2H426.21V188.36H264.32V281.2Z" fill="#E0E0E0"/>
<path d="M393.4 237.93H285.27V241.1H393.4V237.93Z" fill="#F0F0F0"/>
<path d="M400.85 249.75H285.27V253.21H400.85V249.75Z" fill="#F0F0F0"/>
<path d="M400.85 261.71H285.27V265.17H400.85V261.71Z" fill="#F0F0F0"/>
<path d="M323.06 220.76H285.27V228.99H323.06V220.76Z" fill="#F0F0F0"/>
<path d="M426.71 187.86H263.85V202.96H426.71V187.86Z" fill="#E0E0E0"/>
<path d="M414.18 200.7C413.97 200.5 416.071 197.97 418.861 195.05C421.651 192.13 424.101 189.92 424.301 190.11C424.501 190.3 422.41 192.84 419.62 195.77C416.83 198.7 414.38 200.9 414.18 200.7Z" fill="white"/>
<path d="M424.32 200.7C424.12 200.9 421.68 198.7 418.88 195.77C416.08 192.84 413.99 190.31 414.2 190.11C414.41 189.91 416.84 192.11 419.64 195.05C422.44 197.99 424.51 200.5 424.32 200.7Z" fill="white"/>
<path d="M225.54 0.0499878H62.6797V93.9H225.54V0.0499878Z" fill="#E6E6E6"/>
<path d="M192.24 50.13H84.1104V53.3H192.24V50.13Z" fill="#F0F0F0"/>
<path d="M199.69 61.95H84.1104V65.41H199.69V61.95Z" fill="#F0F0F0"/>
<path d="M199.69 73.91H84.1104V77.37H199.69V73.91Z" fill="#F0F0F0"/>
<path d="M121.9 32.96H84.1104V41.19H121.9V32.96Z" fill="#F0F0F0"/>
<path d="M225.54 0.0499878H62.6797V15.15H225.54V0.0499878Z" fill="#E0E0E0"/>
<path d="M212.46 12.82C212.25 12.63 214.35 10.09 217.14 7.16999C219.93 4.24999 222.38 2.03999 222.58 2.23999C222.78 2.43999 220.69 4.96999 217.9 7.88999C215.11 10.81 212.66 13 212.46 12.82Z" fill="white"/>
<path d="M222.58 12.82C222.38 13.02 219.94 10.82 217.14 7.88998C214.34 4.95998 212.25 2.43998 212.46 2.23998C212.67 2.03998 215.1 4.23998 217.9 7.16998C220.7 10.1 222.79 12.63 222.58 12.82Z" fill="white"/>
<path d="M163.86 174.39H0V79.54H163.86V174.39ZM1 173.39H162.86V80.54H1V173.39Z" fill="#E0E0E0"/>
<path d="M130.06 130.12H21.9297V133.29H130.06V130.12Z" fill="#F0F0F0"/>
<path d="M137.51 141.94H21.9297V145.4H137.51V141.94Z" fill="#F0F0F0"/>
<path d="M137.51 153.9H21.9297V157.36H137.51V153.9Z" fill="#F0F0F0"/>
<path d="M59.7197 112.95H21.9297V121.18H59.7197V112.95Z" fill="#F0F0F0"/>
<path d="M163.36 80.04H0.5V95.14H163.36V80.04Z" fill="#E0E0E0"/>
<path d="M352.97 196.12H160.67V368.28H352.97V196.12Z" fill="#E6E6E6"/>
<path d="M170.34 141.89H19.7002V298.4H170.34V141.89Z" fill="#F0F0F0"/>
<path d="M170.34 141.89H19.7002V158.94H170.34V141.89Z" fill="#E0E0E0"/>
<path d="M32.1401 150.24C32.1127 150.858 31.9043 151.455 31.5409 151.956C31.1774 152.457 30.6748 152.84 30.0956 153.058C29.5163 153.276 28.8858 153.319 28.2823 153.181C27.6788 153.044 27.1289 152.733 26.7009 152.286C26.2729 151.839 25.9855 151.276 25.8745 150.667C25.7635 150.058 25.8337 149.43 26.0764 148.861C26.3192 148.291 26.7238 147.806 27.24 147.464C27.7562 147.123 28.3612 146.941 28.9801 146.94C29.836 146.961 30.6487 147.32 31.2408 147.938C31.8329 148.557 32.1563 149.384 32.1401 150.24V150.24Z" fill="white"/>
<path d="M44.9701 150.24C44.9447 150.861 44.737 151.461 44.3731 151.965C44.0092 152.469 43.5051 152.855 42.9235 153.075C42.3419 153.295 41.7086 153.339 41.1022 153.202C40.4958 153.064 39.9433 152.751 39.5132 152.302C39.0832 151.853 38.7948 151.288 38.6838 150.676C38.5727 150.064 38.6441 149.433 38.8889 148.862C39.1337 148.29 39.5411 147.803 40.0606 147.462C40.58 147.12 41.1884 146.939 41.8101 146.94C42.666 146.961 43.4788 147.32 44.0708 147.938C44.6629 148.556 44.9863 149.384 44.9701 150.24V150.24Z" fill="white"/>
<path d="M57.8002 150.24C57.7747 150.861 57.5671 151.461 57.2032 151.965C56.8393 152.469 56.3352 152.855 55.7536 153.075C55.172 153.295 54.5386 153.339 53.9323 153.202C53.3259 153.064 52.7733 152.751 52.3433 152.302C51.9133 151.853 51.6249 151.288 51.5138 150.676C51.4028 150.064 51.4742 149.433 51.719 148.862C51.9638 148.29 52.3712 147.803 52.8906 147.462C53.41 147.12 54.0185 146.939 54.6402 146.94C55.4961 146.961 56.3088 147.32 56.9009 147.938C57.493 148.556 57.8163 149.384 57.8002 150.24V150.24Z" fill="white"/>
<path d="M405.7 34.28H213.4V225.94H405.7V34.28Z" fill="#F0F0F0"/>
<path d="M405.7 34.28H213.4V56.73H405.7V34.28Z" fill="#E0E0E0"/>
<path d="M229.78 45.28C229.745 46.0961 229.471 46.884 228.992 47.5456C228.513 48.2073 227.85 48.7137 227.085 49.0019C226.321 49.2901 225.489 49.3474 224.692 49.1667C223.895 48.9861 223.169 48.5754 222.604 47.9857C222.039 47.396 221.659 46.6532 221.512 45.8496C221.365 45.046 221.458 44.2169 221.778 43.4654C222.098 42.7138 222.632 42.0729 223.314 41.6222C223.995 41.1714 224.794 40.9308 225.61 40.93C226.74 40.9562 227.812 41.4287 228.594 42.2439C229.375 43.0592 229.802 44.1509 229.78 45.28V45.28Z" fill="white"/>
<path d="M245.45 42.34C246.005 42.942 246.37 43.6939 246.5 44.5019C246.63 45.3099 246.519 46.1383 246.182 46.8839C245.845 47.6295 245.295 48.2594 244.602 48.695C243.91 49.1306 243.104 49.3527 242.286 49.3336C241.467 49.3145 240.673 49.0551 240.001 48.5876C239.329 48.1202 238.81 47.4654 238.508 46.7049C238.205 45.9443 238.134 45.1116 238.301 44.3106C238.469 43.5095 238.869 42.7755 239.45 42.2C240.265 41.4244 241.355 41.0037 242.479 41.0299C243.604 41.0561 244.673 41.5273 245.45 42.34V42.34Z" fill="white"/>
<path d="M263.56 45.28C263.524 46.0961 263.25 46.884 262.771 47.5456C262.292 48.2073 261.629 48.7137 260.865 49.0019C260.1 49.2901 259.268 49.3474 258.471 49.1667C257.675 48.9861 256.949 48.5754 256.383 47.9857C255.818 47.396 255.438 46.6532 255.292 45.8496C255.145 45.046 255.237 44.2169 255.557 43.4654C255.878 42.7138 256.412 42.0729 257.093 41.6222C257.774 41.1714 258.573 40.9308 259.39 40.93C260.519 40.9562 261.591 41.4287 262.373 42.2439C263.155 43.0592 263.581 44.1509 263.56 45.28V45.28Z" fill="white"/>
<path d="M364.16 419.13C364.16 419.27 294.72 419.39 209.09 419.39C123.46 419.39 53.9902 419.27 53.9902 419.13C53.9902 418.99 123.42 418.87 209.09 418.87C294.76 418.87 364.16 419 364.16 419.13Z" fill="#263238"/>
<path d="M296.501 296.71C281.051 285.92 277.551 265.89 278.161 247.88C278.261 244.88 277.931 241.7 279.361 239.07C280.791 236.44 284.131 234.63 286.821 235.89C289.051 236.94 290.021 239.54 291.271 241.69C292.939 244.554 295.383 246.887 298.321 248.42C300.231 249.42 302.601 250.02 304.491 248.98C307.091 247.55 307.391 243.98 307.371 240.98C307.371 235.4 307.337 229.827 307.271 224.26C307.091 221.271 307.395 218.272 308.171 215.38C309.101 212.54 311.171 209.91 314.001 209.11C316.831 208.31 320.361 209.96 321.001 212.88C321.111 214.117 321.141 215.359 321.091 216.6C321.171 217.85 321.751 219.22 322.921 219.6C324.091 219.98 325.311 219.11 326.211 218.23C329.291 215.23 331.391 211.32 333.341 207.46C335.291 203.6 337.201 199.63 340.001 196.34C342.801 193.05 346.671 190.44 351.001 190.19C355.331 189.94 359.841 192.6 360.921 196.8C362.001 201 359.551 205.29 356.921 208.7C352.952 213.762 348.274 218.224 343.031 221.95C342.007 222.509 341.19 223.382 340.701 224.44C340.051 226.44 341.941 228.44 343.911 229.07C346.141 229.81 348.561 229.58 350.911 229.86C353.261 230.14 355.761 231.16 356.651 233.36C357.871 236.42 355.311 239.62 352.801 241.72C347.761 245.92 342.038 249.225 335.881 251.49C333.681 252.29 331.371 253 329.591 254.54C327.811 256.08 326.751 258.77 327.821 260.88C328.891 262.99 331.641 263.66 333.951 263.23C336.261 262.8 338.311 261.56 340.511 260.73C344.621 259.18 349.921 259.46 352.511 263.01C353.313 264.233 353.821 265.625 353.994 267.077C354.168 268.53 354.002 270.002 353.511 271.38C352.51 274.121 350.969 276.634 348.981 278.77C342.431 286.595 333.921 292.541 324.321 296C314.791 299.3 305.961 300.2 296.491 296.73" fill="#CC3539"/>
<path d="M356.521 192.66C356.521 192.66 356.431 192.76 356.231 192.94L355.341 193.73C354.561 194.43 353.411 195.45 351.961 196.8C347.85 200.617 344.033 204.739 340.541 209.13C338.311 211.9 336.001 215.04 333.541 218.45C331.081 221.86 328.541 225.54 326.021 229.45C323.335 233.573 320.874 237.839 318.651 242.23C317.491 244.52 316.471 246.91 315.421 249.35L312.321 256.8C308.235 266.184 304.676 275.789 301.661 285.57C299.233 293.573 297.559 301.785 296.661 310.1C296.08 315.711 295.986 321.362 296.381 326.99C296.541 328.99 296.691 330.52 296.831 331.56C296.891 332.06 296.931 332.46 296.971 332.75V333.16C296.928 333.03 296.898 332.896 296.881 332.76C296.831 332.47 296.771 332.08 296.691 331.58C296.511 330.58 296.321 329 296.141 327C295.659 321.362 295.692 315.692 296.241 310.06C297.083 301.71 298.72 293.459 301.131 285.42C304.121 275.612 307.67 265.982 311.761 256.58L314.941 249.16C315.991 246.73 317.021 244.32 318.191 242.02C320.43 237.616 322.91 233.34 325.621 229.21C328.181 225.21 330.761 221.59 333.191 218.21C335.621 214.83 337.971 211.67 340.191 208.91C343.718 204.53 347.587 200.438 351.761 196.67C353.241 195.34 354.421 194.34 355.221 193.67L356.151 192.92C356.265 192.821 356.389 192.734 356.521 192.66V192.66Z" fill="#263238"/>
<path d="M318.321 242C318.18 241.588 318.083 241.162 318.031 240.73C317.871 239.9 317.691 238.73 317.481 237.21C317.051 234.21 316.611 230.1 316.141 225.55C315.671 221 315.141 216.88 314.701 213.91C314.471 212.43 314.271 211.24 314.131 210.41C314.022 209.985 313.965 209.549 313.961 209.11C314.133 209.511 314.257 209.93 314.331 210.36C314.551 211.18 314.801 212.36 315.081 213.85C315.651 216.85 316.211 220.93 316.681 225.49C317.151 230.05 317.551 234.05 317.861 237.16C318.011 238.56 318.141 239.75 318.241 240.7C318.319 241.129 318.345 241.565 318.321 242V242Z" fill="#263238"/>
<path d="M356.801 234.82C356.314 234.926 355.819 234.986 355.321 235C354.321 235.09 352.901 235.21 351.141 235.41C347.621 235.79 342.781 236.49 337.471 237.49C332.161 238.49 327.391 239.62 323.961 240.49C322.251 240.93 320.871 241.33 319.961 241.6C319.475 241.773 318.972 241.893 318.461 241.96C318.923 241.728 319.405 241.537 319.901 241.39C320.841 241.06 322.201 240.6 323.901 240.11C327.311 239.11 332.081 237.92 337.411 236.9C341.926 236.037 346.482 235.402 351.061 235C352.831 234.85 354.261 234.79 355.261 234.77C355.775 234.735 356.291 234.752 356.801 234.82Z" fill="#263238"/>
<path d="M301.62 284.72C301.514 284.575 301.426 284.417 301.361 284.25L300.701 282.86C300.131 281.65 299.36 279.86 298.44 277.67C296.58 273.27 294.21 267.11 291.69 260.27C289.17 253.43 286.85 247.27 285.09 242.82C284.23 240.66 283.521 238.89 282.991 237.57L282.43 236.14C282.353 235.975 282.299 235.8 282.271 235.62C282.377 235.765 282.464 235.923 282.53 236.09L283.19 237.48C283.75 238.69 284.531 240.48 285.451 242.67C287.311 247.07 289.681 253.23 292.201 260.07C294.721 266.91 297.041 273.07 298.801 277.52C299.661 279.68 300.371 281.45 300.891 282.77C301.121 283.34 301.311 283.77 301.461 284.2C301.538 284.365 301.592 284.54 301.62 284.72V284.72Z" fill="#263238"/>
<path d="M352.7 268.25C352.54 268.342 352.369 268.412 352.19 268.46L350.71 268.96L345.24 270.73C340.62 272.23 334.24 274.37 327.24 276.73C320.24 279.09 313.83 281.19 309.18 282.59C306.86 283.3 304.97 283.84 303.66 284.2L302.15 284.59C301.975 284.646 301.794 284.683 301.61 284.7C301.77 284.608 301.942 284.537 302.12 284.49L303.6 283.99L309.07 282.22C313.69 280.72 320.07 278.58 327.07 276.22C334.07 273.86 340.47 271.76 345.12 270.36C347.45 269.65 349.33 269.11 350.65 268.75L352.16 268.36C352.336 268.304 352.517 268.267 352.7 268.25V268.25Z" fill="#263238"/>
<path d="M331.861 25.68L326.711 27.52L324.501 20.79C320.441 8.38001 307.501 1.79001 295.611 5.98001C283.721 10.17 277.391 23.78 281.451 36.19L283.661 42.92L278.491 44.77C276.519 45.5347 274.918 47.0296 274.021 48.9441C273.123 50.8587 272.998 53.0455 273.671 55.05L288.001 98.84C288.298 99.8323 288.792 100.755 289.453 101.552C290.114 102.35 290.929 103.007 291.848 103.483C292.768 103.96 293.774 104.247 294.807 104.327C295.84 104.407 296.878 104.279 297.861 103.95L351.231 84.86C353.228 84.0967 354.852 82.5885 355.76 80.6526C356.668 78.7167 356.79 76.5041 356.101 74.48L341.761 30.69C341.455 29.7005 340.954 28.7825 340.286 27.991C339.619 27.1995 338.798 26.5505 337.874 26.083C336.95 25.6154 335.942 25.3387 334.909 25.2695C333.875 25.2003 332.839 25.3399 331.861 25.68V25.68ZM291.181 32.68C290.086 29.4532 290.282 25.928 291.729 22.8429C293.176 19.7577 295.76 17.3521 298.941 16.13C300.511 15.5926 302.174 15.3772 303.83 15.4964C305.485 15.6156 307.1 16.0672 308.578 16.8241C310.055 17.581 311.365 18.6277 312.429 19.9018C313.493 21.176 314.289 22.6514 314.771 24.24L316.971 30.97L293.381 39.41L291.181 32.68ZM321.181 71.54L324.841 82.72C324.908 82.9442 324.886 83.1856 324.78 83.3942C324.674 83.6028 324.491 83.7624 324.271 83.84L319.141 85.67C318.936 85.7266 318.718 85.702 318.532 85.6013C318.345 85.5007 318.205 85.3318 318.141 85.13L314.451 74C312.416 73.8891 310.464 73.1594 308.855 71.9083C307.247 70.6573 306.059 68.9448 305.451 67C304.581 64.4289 304.74 61.6211 305.893 59.1644C307.047 56.7076 309.107 54.7925 311.641 53.82C312.892 53.3925 314.216 53.2213 315.535 53.3166C316.854 53.4118 318.14 53.7716 319.316 54.3744C320.493 54.9772 321.536 55.8108 322.384 56.8254C323.232 57.84 323.867 59.0149 324.251 60.28C324.894 62.2556 324.947 64.3759 324.404 66.3812C323.86 68.3865 322.744 70.1898 321.191 71.57L321.181 71.54Z" fill="#CC3539"/>
<path d="M326.481 27.4C326.481 27.54 316.931 31.13 305.051 35.4C293.171 39.67 283.481 43.1 283.431 43C283.381 42.9 292.981 39.28 304.871 35C316.761 30.72 326.431 27.27 326.481 27.4Z" fill="#263238"/>
<path d="M337.821 29.24C337.865 29.3268 337.902 29.4171 337.931 29.51C338.011 29.71 338.101 29.97 338.221 30.29C338.481 31.02 338.841 32.03 339.291 33.29L343.131 44.47C344.731 49.21 346.641 54.83 348.761 61.07C349.761 64.2 350.941 67.46 352.041 70.89C352.63 72.6576 352.884 74.5193 352.791 76.38C352.706 77.3477 352.431 78.2891 351.981 79.15C351.5 80.0081 350.859 80.7653 350.091 81.38C348.546 82.5078 346.831 83.3821 345.011 83.97L339.861 85.82L330.111 89.31L313.601 95.19L302.451 99.11L299.451 100.11L298.651 100.37C298.565 100.408 298.474 100.432 298.381 100.44C298.381 100.44 298.461 100.44 298.631 100.32L299.411 100.01L302.411 98.88L313.501 94.8L329.981 88.8L339.711 85.28L344.861 83.42C346.629 82.856 348.294 82.0083 349.791 80.91C350.505 80.3396 351.103 79.6367 351.551 78.84C351.974 78.0438 352.23 77.169 352.301 76.27C352.393 74.4772 352.149 72.683 351.581 70.98C350.501 67.58 349.361 64.29 348.331 61.16C346.251 54.91 344.331 49.27 342.811 44.53C341.291 39.79 340.011 35.98 339.131 33.3C338.711 31.99 338.391 30.97 338.131 30.23L337.891 29.43C337.861 29.3694 337.837 29.3057 337.821 29.24V29.24Z" fill="#263238"/>
<path d="M309.661 15.45C309.661 15.45 309.131 15.19 308.151 14.79C306.754 14.2533 305.277 13.9558 303.781 13.91C301.564 13.834 299.358 14.2506 297.321 15.13C294.844 16.225 292.727 17.9961 291.211 20.24C289.685 22.4775 288.866 25.1217 288.861 27.83C288.882 30.0497 289.219 32.2552 289.861 34.38C290.381 36.2 290.921 37.65 291.281 38.66C291.493 39.173 291.667 39.7011 291.801 40.24C291.517 39.7603 291.279 39.2547 291.091 38.73C290.681 37.73 290.091 36.31 289.511 34.48C288.799 32.3329 288.411 30.0915 288.361 27.83C288.334 25.0194 289.172 22.2686 290.761 19.95C292.33 17.6241 294.534 15.7982 297.111 14.69C299.211 13.8058 301.486 13.4158 303.761 13.55C305.289 13.6279 306.79 13.9837 308.191 14.6C308.565 14.7728 308.926 14.9733 309.271 15.2C309.413 15.2625 309.545 15.3468 309.661 15.45V15.45Z" fill="#263238"/>
<path d="M310.121 54.58C310.28 54.4833 310.447 54.3997 310.621 54.33C311.121 54.1041 311.64 53.9202 312.171 53.78C313.013 53.5312 313.883 53.3835 314.761 53.34C315.955 53.2759 317.149 53.4562 318.271 53.87C320.831 54.77 323.181 57.38 324.341 60.87C324.897 62.7429 324.897 64.7371 324.341 66.61C323.724 68.6428 322.618 70.4934 321.121 72L321.181 71.73C322.511 75.38 323.961 79.34 325.461 83.47L325.551 83.72L325.301 83.81L323.011 84.57L318.011 86.24L317.761 86.32L317.681 86.07C316.311 81.93 314.811 78.07 313.681 74.28L313.901 74.45C311.946 74.2876 310.082 73.5539 308.541 72.34C307.146 71.2662 306.003 69.9011 305.191 68.34C304.458 66.9556 304.093 65.4061 304.131 63.84C304.177 62.2395 304.577 60.6689 305.301 59.2409C306.025 57.8129 307.056 56.5628 308.321 55.58C308.841 55.1576 309.425 54.8201 310.051 54.58C309.486 54.9152 308.938 55.279 308.411 55.67C307.022 56.8449 305.958 58.3564 305.321 60.06C304.774 61.3447 304.518 62.7345 304.571 64.1298C304.625 65.525 304.987 66.8911 305.631 68.13C306.43 69.6318 307.545 70.942 308.901 71.97C310.371 73.1238 312.148 73.8194 314.011 73.97H314.181L314.231 74.12C315.331 77.84 316.841 81.73 318.231 85.89L317.901 85.73L322.901 84.06L325.181 83.29L325.021 83.63C323.531 79.5 322.091 75.53 320.771 71.88V71.73L320.891 71.61C322.344 70.1659 323.428 68.3924 324.051 66.44C324.581 64.6485 324.581 62.7416 324.051 60.95C322.961 57.59 320.711 55.04 318.271 54.14C317.191 53.7235 316.038 53.5297 314.881 53.57C314.017 53.5898 313.158 53.7072 312.321 53.92C310.831 54.29 310.131 54.63 310.121 54.58Z" fill="#263238"/>
<path d="M279.21 343.32L179.32 342.86C173.552 342.828 168.031 340.508 163.972 336.41C159.913 332.311 157.646 326.769 157.67 321L158.73 70.59C158.742 67.732 159.317 64.9044 160.422 62.2688C161.527 59.6332 163.141 57.2412 165.171 55.2296C167.201 53.2181 169.608 51.6263 172.254 50.5454C174.899 49.4644 177.732 48.9155 180.59 48.93L280.47 49.39C286.239 49.4191 291.76 51.7366 295.821 55.8334C299.882 59.9302 302.151 65.4714 302.13 71.24L301.07 321.64C301.058 324.499 300.484 327.327 299.379 329.964C298.274 332.601 296.66 334.994 294.63 337.007C292.6 339.021 290.194 340.614 287.548 341.697C284.902 342.78 282.069 343.332 279.21 343.32V343.32Z" fill="#455A64"/>
<path d="M280.32 58H260.96C260.329 58.0117 259.706 58.1477 259.126 58.4004C258.547 58.653 258.024 59.0172 257.585 59.4722C257.147 59.9272 256.803 60.4642 256.572 61.0523C256.341 61.6405 256.229 62.2683 256.24 62.9V66.41C256.252 67.0412 256.14 67.6686 255.909 68.2561C255.678 68.8437 255.333 69.38 254.895 69.8342C254.456 70.2884 253.933 70.6517 253.354 70.9032C252.775 71.1548 252.152 71.2896 251.52 71.3L213.78 71.13C212.504 71.096 211.293 70.5566 210.413 69.6304C209.534 68.7041 209.058 67.4668 209.09 66.19V62.68C209.123 61.4049 208.648 60.169 207.771 59.2431C206.894 58.3171 205.685 57.7766 204.41 57.74H197.6L180.65 57.66C176.619 57.636 172.742 59.2105 169.869 62.0387C166.996 64.867 165.36 68.7185 165.32 72.75L164.32 317.17C164.311 319.17 164.696 321.152 165.453 323.004C166.21 324.855 167.324 326.539 168.732 327.96C170.139 329.381 171.813 330.51 173.658 331.284C175.502 332.058 177.48 332.461 179.48 332.47L279.16 332.93C281.162 332.939 283.145 332.554 284.998 331.797C286.85 331.039 288.536 329.925 289.957 328.516C291.379 327.107 292.509 325.432 293.284 323.587C294.058 321.741 294.461 319.761 294.47 317.76L295.47 73.34C295.494 69.2971 293.912 65.4102 291.071 62.5337C288.23 59.6572 284.363 58.0264 280.32 58V58Z" fill="white"/>
<path d="M270.5 300.43L196.38 300.11C195.61 300.11 194.99 299.27 195 298.25L195.08 278.86C195.08 277.86 195.71 277 196.48 277L270.6 277.34C271.027 277.414 271.409 277.649 271.666 277.998C271.923 278.346 272.035 278.781 271.98 279.21L271.91 298.58C271.91 299.61 271.27 300.44 270.5 300.43Z" fill="#CC3539"/>
<path d="M222.927 286.308H223.529V291.48H226.716V292H222.927V286.308ZM229.278 292.041C228.866 292.041 228.495 291.949 228.164 291.764C227.833 291.574 227.573 291.314 227.383 290.984C227.194 290.653 227.099 290.279 227.099 289.861C227.099 289.444 227.194 289.07 227.383 288.739C227.573 288.409 227.833 288.151 228.164 287.967C228.495 287.783 228.866 287.69 229.278 287.69C229.69 287.69 230.061 287.783 230.392 287.967C230.723 288.151 230.98 288.409 231.164 288.739C231.354 289.07 231.449 289.444 231.449 289.861C231.449 290.279 231.354 290.653 231.164 290.984C230.98 291.314 230.723 291.574 230.392 291.764C230.061 291.949 229.69 292.041 229.278 292.041ZM229.278 291.528C229.582 291.528 229.853 291.461 230.091 291.325C230.335 291.184 230.525 290.986 230.66 290.732C230.796 290.477 230.864 290.187 230.864 289.861C230.864 289.536 230.796 289.246 230.66 288.991C230.525 288.737 230.335 288.541 230.091 288.406C229.853 288.265 229.582 288.195 229.278 288.195C228.974 288.195 228.701 288.265 228.457 288.406C228.218 288.541 228.028 288.737 227.887 288.991C227.752 289.246 227.684 289.536 227.684 289.861C227.684 290.187 227.752 290.477 227.887 290.732C228.028 290.986 228.218 291.184 228.457 291.325C228.701 291.461 228.974 291.528 229.278 291.528ZM236.588 287.723V291.48C236.588 292.206 236.409 292.743 236.051 293.09C235.699 293.442 235.165 293.618 234.449 293.618C234.053 293.618 233.677 293.558 233.319 293.439C232.966 293.325 232.679 293.165 232.457 292.959L232.75 292.52C232.956 292.705 233.205 292.848 233.498 292.951C233.796 293.054 234.108 293.106 234.433 293.106C234.975 293.106 235.373 292.978 235.628 292.724C235.883 292.474 236.01 292.084 236.01 291.553V291.008C235.831 291.279 235.596 291.485 235.303 291.626C235.016 291.767 234.696 291.837 234.343 291.837C233.942 291.837 233.576 291.751 233.246 291.577C232.92 291.398 232.663 291.152 232.473 290.837C232.289 290.517 232.197 290.157 232.197 289.756C232.197 289.355 232.289 288.997 232.473 288.682C232.663 288.368 232.92 288.124 233.246 287.951C233.571 287.777 233.937 287.69 234.343 287.69C234.707 287.69 235.035 287.764 235.327 287.91C235.62 288.056 235.856 288.268 236.035 288.544V287.723H236.588ZM234.4 291.325C234.709 291.325 234.988 291.26 235.238 291.13C235.487 290.994 235.68 290.807 235.815 290.569C235.956 290.33 236.027 290.059 236.027 289.756C236.027 289.452 235.956 289.184 235.815 288.951C235.68 288.712 235.487 288.528 235.238 288.398C234.994 288.262 234.715 288.195 234.4 288.195C234.091 288.195 233.812 288.26 233.563 288.39C233.319 288.52 233.126 288.704 232.985 288.943C232.85 289.181 232.782 289.452 232.782 289.756C232.782 290.059 232.85 290.33 232.985 290.569C233.126 290.807 233.319 290.994 233.563 291.13C233.812 291.26 234.091 291.325 234.4 291.325ZM238.202 287.723H238.779V292H238.202V287.723ZM238.495 286.788C238.376 286.788 238.275 286.747 238.194 286.666C238.113 286.585 238.072 286.487 238.072 286.373C238.072 286.265 238.113 286.17 238.194 286.089C238.275 286.007 238.376 285.967 238.495 285.967C238.614 285.967 238.714 286.007 238.796 286.089C238.877 286.164 238.918 286.257 238.918 286.365C238.918 286.484 238.877 286.585 238.796 286.666C238.714 286.747 238.614 286.788 238.495 286.788ZM242.565 287.69C243.102 287.69 243.527 287.848 243.842 288.162C244.161 288.471 244.321 288.924 244.321 289.52V292H243.744V289.577C243.744 289.132 243.633 288.794 243.411 288.56C243.188 288.327 242.871 288.211 242.459 288.211C241.998 288.211 241.633 288.349 241.361 288.626C241.096 288.897 240.963 289.273 240.963 289.756V292H240.386V287.723H240.939V288.512C241.096 288.251 241.313 288.051 241.589 287.91C241.871 287.764 242.196 287.69 242.565 287.69Z" fill="#E8E8E3"/>
<path d="M207.574 129.85L181.854 129.733L181.833 134.453L207.553 134.57L207.574 129.85Z" fill="#CC3539"/>
<path opacity="0.1" d="M207.574 129.85L181.854 129.733L181.833 134.453L207.553 134.57L207.574 129.85Z" fill="black"/>
<path d="M282.97 158.83C283.172 158.81 283.371 158.763 283.56 158.69C283.837 158.582 284.078 158.398 284.254 158.159C284.431 157.92 284.537 157.636 284.56 157.34C284.56 155.75 284.56 153.43 284.56 150.45C284.56 148.96 284.56 147.29 284.56 145.45C284.56 145 284.56 144.53 284.56 144.06C284.625 143.604 284.526 143.14 284.28 142.75C284.143 142.563 283.963 142.411 283.757 142.305C283.55 142.199 283.322 142.143 283.09 142.14H281.53H267.08L183.44 141.83C183.226 141.826 183.014 141.874 182.823 141.97C182.631 142.066 182.466 142.207 182.34 142.38C182.099 142.771 182.006 143.236 182.08 143.69C182.08 144.69 182.08 145.69 182.08 146.69C182.08 148.69 182.08 150.69 182.08 152.69C182.08 153.69 182.08 154.69 182.08 155.69C182.039 156.156 182.039 156.624 182.08 157.09C182.133 157.29 182.23 157.475 182.366 157.631C182.501 157.787 182.67 157.91 182.86 157.99C183.057 158.068 183.268 158.106 183.48 158.1H188.57L210.78 158.22L248.38 158.45L273.73 158.65L280.62 158.73H282.41C282.82 158.73 283.02 158.73 283.02 158.73H282.41H280.62H273.73H248.38L210.78 158.61L188.57 158.52H183.48C183.2 158.531 182.921 158.484 182.66 158.38C182.397 158.268 182.163 158.097 181.976 157.88C181.788 157.663 181.653 157.407 181.58 157.13C181.522 156.868 181.502 156.598 181.52 156.33V155.59C181.52 154.59 181.52 153.59 181.52 152.59C181.52 150.59 181.52 148.59 181.52 146.59C181.52 145.59 181.52 144.59 181.52 143.59C181.501 143.324 181.501 143.056 181.52 142.79C181.558 142.496 181.671 142.217 181.85 141.98C182.023 141.739 182.251 141.543 182.516 141.408C182.78 141.274 183.074 141.206 183.37 141.21L267.01 141.67L281.46 141.77H283.02C283.295 141.77 283.566 141.837 283.809 141.964C284.053 142.091 284.263 142.275 284.42 142.5C284.702 142.935 284.816 143.457 284.74 143.97C284.74 144.44 284.74 144.91 284.74 145.36C284.74 147.18 284.74 148.85 284.74 150.36C284.74 153.36 284.67 155.66 284.65 157.26C284.626 157.568 284.514 157.862 284.328 158.108C284.142 158.354 283.889 158.542 283.6 158.65C283.411 158.767 283.193 158.83 282.97 158.83V158.83Z" fill="#E0E0E0"/>
<path d="M236.62 146.85H189.58V151.26H236.62V146.85Z" fill="#CC3539"/>
<path opacity="0.2" d="M236.62 146.85H189.58V151.26H236.62V146.85Z" fill="white"/>
<path d="M207.398 172.909L181.679 172.792L181.657 177.512L207.377 177.629L207.398 172.909Z" fill="#CC3539"/>
<path opacity="0.1" d="M207.398 172.909L181.679 172.792L181.657 177.512L207.377 177.629L207.398 172.909Z" fill="black"/>
<path d="M282.32 201.89C282.522 201.865 282.723 201.828 282.92 201.78C283.2 201.691 283.457 201.543 283.674 201.347C283.891 201.15 284.064 200.909 284.18 200.64C284.338 200.236 284.399 199.802 284.36 199.37C284.36 198.89 284.36 198.37 284.36 197.79C284.36 196.63 284.36 195.31 284.36 193.79V187.44C284.408 186.98 284.306 186.517 284.07 186.12C283.824 185.712 283.436 185.41 282.98 185.27C282.482 185.181 281.975 185.154 281.47 185.19H267.08L183.73 184.88C183.282 184.881 182.849 185.045 182.513 185.341C182.176 185.637 181.958 186.045 181.9 186.49C181.9 187.44 181.9 188.49 181.9 189.49C181.9 191.49 181.9 193.49 181.9 195.49C181.9 196.49 181.9 197.49 181.9 198.49C181.863 198.957 181.883 199.428 181.96 199.89C182.085 200.295 182.342 200.648 182.69 200.89C183.06 201.124 183.493 201.236 183.93 201.21H185.32H188.21L210.34 201.32L247.81 201.55L273.07 201.75L279.94 201.83H281.73H282.33H281.73H279.94H273.07H247.81L210.32 201.79L188.19 201.71H183.84C183.299 201.742 182.763 201.598 182.31 201.3C181.855 200.985 181.523 200.522 181.37 199.99C181.281 199.482 181.254 198.965 181.29 198.45C181.29 197.45 181.29 196.45 181.29 195.45C181.29 193.45 181.29 191.45 181.29 189.45C181.29 188.45 181.29 187.45 181.29 186.45C181.363 185.878 181.642 185.353 182.075 184.972C182.507 184.591 183.064 184.38 183.64 184.38L266.99 184.84L281.38 184.95C281.916 184.917 282.454 184.954 282.98 185.06C283.5 185.23 283.938 185.586 284.21 186.06C284.469 186.5 284.581 187.012 284.53 187.52C284.53 187.99 284.53 188.45 284.53 188.91C284.53 190.72 284.53 192.38 284.53 193.91C284.53 195.44 284.53 196.73 284.53 197.91C284.53 198.48 284.53 199.01 284.53 199.5C284.567 199.947 284.495 200.397 284.32 200.81C284.19 201.086 284.003 201.331 283.77 201.527C283.537 201.724 283.264 201.868 282.97 201.95C282.752 201.968 282.532 201.948 282.32 201.89V201.89Z" fill="#E0E0E0"/>
<path d="M207.205 217.838L181.485 217.721L181.464 222.441L207.184 222.558L207.205 217.838Z" fill="#CC3539"/>
<path opacity="0.1" d="M207.205 217.838L181.485 217.721L181.464 222.441L207.184 222.558L207.205 217.838Z" fill="black"/>
<path d="M282.12 246.8C282.322 246.776 282.522 246.739 282.72 246.69C282.998 246.602 283.254 246.455 283.471 246.26C283.688 246.066 283.862 245.827 283.98 245.56C284.137 245.156 284.198 244.722 284.16 244.29C284.16 243.8 284.16 243.29 284.16 242.7C284.16 241.55 284.16 240.22 284.16 238.7V232.35C284.208 231.89 284.106 231.427 283.87 231.03C283.617 230.63 283.231 230.332 282.78 230.19C282.282 230.098 281.775 230.067 281.27 230.1H266.88L183.53 229.79C183.082 229.791 182.649 229.955 182.312 230.251C181.976 230.547 181.758 230.955 181.7 231.4C181.7 232.4 181.7 233.4 181.7 234.4C181.7 236.4 181.7 238.4 181.7 240.4C181.7 241.4 181.7 242.4 181.7 243.4C181.663 243.864 181.683 244.331 181.76 244.79C181.88 245.198 182.138 245.552 182.49 245.79C182.857 246.03 183.293 246.142 183.73 246.11H188.08L210.21 246.23L247.68 246.46L272.94 246.66L279.81 246.74H281.6C282 246.74 282.2 246.74 282.2 246.74C282.2 246.74 282 246.74 281.6 246.74H279.81H272.94H247.68L210.21 246.63L188.08 246.54H183.73C183.189 246.577 182.65 246.432 182.2 246.13C181.745 245.815 181.413 245.352 181.26 244.82C181.17 244.312 181.143 243.795 181.18 243.28C181.18 242.28 181.18 241.28 181.18 240.28C181.18 238.28 181.18 236.28 181.18 234.28C181.18 233.28 181.18 232.28 181.18 231.23C181.251 230.659 181.527 230.134 181.958 229.752C182.389 229.371 182.945 229.161 183.52 229.16L266.87 229.62L281.26 229.73C281.796 229.697 282.334 229.734 282.86 229.84C283.379 230.01 283.818 230.366 284.09 230.84C284.349 231.28 284.461 231.792 284.41 232.3C284.41 232.77 284.41 233.24 284.41 233.69C284.41 235.5 284.41 237.16 284.41 238.69C284.41 240.22 284.41 241.51 284.41 242.69C284.41 243.26 284.41 243.79 284.41 244.28C284.448 244.727 284.376 245.177 284.2 245.59C284.07 245.866 283.882 246.111 283.649 246.307C283.416 246.504 283.144 246.648 282.85 246.73C282.615 246.81 282.365 246.834 282.12 246.8V246.8Z" fill="#E0E0E0"/>
<path d="M235.616 191.157L188.576 190.943L188.556 195.353L235.596 195.567L235.616 191.157Z" fill="#CC3539"/>
<path opacity="0.2" d="M235.616 191.157L188.576 190.943L188.556 195.353L235.596 195.567L235.616 191.157Z" fill="white"/>
<path d="M192.83 238.64C192.801 239.042 192.654 239.427 192.408 239.746C192.162 240.066 191.827 240.306 191.446 240.437C191.064 240.568 190.653 240.585 190.262 240.484C189.872 240.384 189.519 240.171 189.248 239.872C188.978 239.572 188.801 239.201 188.74 238.802C188.678 238.403 188.736 237.995 188.904 237.629C189.073 237.262 189.345 236.954 189.687 236.74C190.03 236.527 190.427 236.419 190.83 236.43C191.387 236.461 191.91 236.71 192.284 237.124C192.659 237.538 192.855 238.083 192.83 238.64V238.64Z" fill="#CC3539"/>
<path d="M199.2 238.67C199.22 238.952 199.181 239.235 199.087 239.501C198.992 239.768 198.844 240.012 198.651 240.218C198.459 240.425 198.225 240.59 197.966 240.703C197.707 240.815 197.428 240.873 197.145 240.873C196.862 240.873 196.583 240.815 196.324 240.703C196.064 240.59 195.831 240.425 195.638 240.218C195.446 240.012 195.298 239.768 195.203 239.501C195.109 239.235 195.07 238.952 195.09 238.67C195.07 238.388 195.109 238.105 195.203 237.839C195.298 237.572 195.446 237.328 195.638 237.122C195.831 236.915 196.064 236.75 196.324 236.637C196.583 236.525 196.862 236.467 197.145 236.467C197.428 236.467 197.707 236.525 197.966 236.637C198.225 236.75 198.459 236.915 198.651 237.122C198.844 237.328 198.992 237.572 199.087 237.839C199.181 238.105 199.22 238.388 199.2 238.67V238.67Z" fill="#CC3539"/>
<path d="M205.58 238.7C205.551 239.102 205.404 239.487 205.158 239.806C204.912 240.126 204.577 240.366 204.196 240.497C203.814 240.628 203.403 240.645 203.012 240.544C202.622 240.444 202.269 240.231 201.998 239.932C201.728 239.632 201.551 239.261 201.49 238.862C201.428 238.463 201.486 238.055 201.654 237.689C201.823 237.322 202.095 237.014 202.437 236.8C202.78 236.587 203.177 236.479 203.58 236.49C204.136 236.524 204.657 236.774 205.031 237.187C205.405 237.6 205.602 238.143 205.58 238.7Z" fill="#CC3539"/>
<path d="M211.95 238.73C211.921 239.132 211.774 239.517 211.528 239.837C211.282 240.156 210.947 240.396 210.566 240.527C210.184 240.659 209.773 240.675 209.382 240.574C208.992 240.474 208.639 240.261 208.369 239.962C208.098 239.663 207.921 239.291 207.86 238.892C207.799 238.493 207.856 238.085 208.024 237.719C208.193 237.352 208.465 237.044 208.807 236.83C209.15 236.617 209.547 236.509 209.95 236.52C210.507 236.554 211.027 236.804 211.401 237.217C211.775 237.63 211.972 238.173 211.95 238.73Z" fill="#CC3539"/>
<path d="M218.32 238.75C218.293 239.153 218.147 239.539 217.902 239.86C217.657 240.18 217.323 240.422 216.942 240.555C216.56 240.688 216.148 240.705 215.757 240.606C215.366 240.506 215.012 240.294 214.741 239.995C214.469 239.696 214.291 239.324 214.229 238.925C214.168 238.526 214.224 238.118 214.393 237.751C214.561 237.384 214.833 237.074 215.176 236.861C215.519 236.647 215.917 236.539 216.32 236.55C216.875 236.584 217.394 236.832 217.768 237.243C218.141 237.654 218.34 238.195 218.32 238.75Z" fill="#CC3539"/>
<path d="M224.7 238.78C224.673 239.181 224.529 239.565 224.286 239.885C224.044 240.205 223.713 240.447 223.334 240.581C222.955 240.716 222.546 240.736 222.156 240.641C221.765 240.546 221.412 240.338 221.138 240.044C220.864 239.75 220.682 239.383 220.614 238.987C220.547 238.591 220.596 238.184 220.757 237.816C220.918 237.448 221.183 237.135 221.519 236.915C221.855 236.695 222.249 236.579 222.65 236.58C223.213 236.601 223.745 236.844 224.13 237.256C224.514 237.669 224.719 238.217 224.7 238.78V238.78Z" fill="#CC3539"/>
<path d="M231.07 238.81C231.09 239.092 231.051 239.375 230.957 239.641C230.862 239.908 230.714 240.152 230.522 240.358C230.329 240.565 230.096 240.73 229.836 240.843C229.577 240.955 229.298 241.013 229.015 241.013C228.732 241.013 228.453 240.955 228.194 240.843C227.935 240.73 227.701 240.565 227.509 240.358C227.316 240.152 227.168 239.908 227.073 239.641C226.979 239.375 226.94 239.092 226.96 238.81C226.94 238.528 226.979 238.245 227.073 237.979C227.168 237.712 227.316 237.468 227.509 237.262C227.701 237.055 227.935 236.89 228.194 236.777C228.453 236.665 228.732 236.607 229.015 236.607C229.298 236.607 229.577 236.665 229.836 236.777C230.096 236.89 230.329 237.055 230.522 237.262C230.714 237.468 230.862 237.712 230.957 237.979C231.051 238.245 231.09 238.528 231.07 238.81Z" fill="#CC3539"/>
<path d="M237.44 238.84C237.413 239.241 237.269 239.625 237.027 239.945C236.784 240.265 236.453 240.507 236.074 240.641C235.696 240.776 235.286 240.796 234.896 240.701C234.506 240.606 234.152 240.398 233.878 240.104C233.604 239.81 233.422 239.443 233.355 239.047C233.287 238.651 233.337 238.244 233.497 237.876C233.658 237.508 233.923 237.195 234.259 236.975C234.596 236.755 234.989 236.639 235.39 236.64C235.954 236.661 236.486 236.904 236.87 237.316C237.254 237.729 237.459 238.277 237.44 238.84V238.84Z" fill="#CC3539"/>
<path d="M243.81 238.87C243.783 239.273 243.638 239.659 243.392 239.98C243.147 240.301 242.813 240.542 242.432 240.675C242.051 240.808 241.639 240.825 241.247 240.726C240.856 240.626 240.503 240.414 240.231 240.115C239.959 239.816 239.782 239.444 239.72 239.045C239.658 238.646 239.714 238.238 239.883 237.871C240.051 237.504 240.323 237.194 240.666 236.981C241.009 236.767 241.407 236.659 241.81 236.67C242.365 236.704 242.884 236.952 243.258 237.363C243.631 237.774 243.83 238.315 243.81 238.87V238.87Z" fill="#CC3539"/>
<g opacity="0.2">
<path opacity="0.2" d="M192.83 238.64C192.801 239.042 192.654 239.427 192.408 239.746C192.162 240.066 191.827 240.306 191.446 240.437C191.064 240.568 190.653 240.585 190.262 240.484C189.872 240.384 189.519 240.171 189.248 239.872C188.978 239.572 188.801 239.201 188.74 238.802C188.678 238.403 188.736 237.995 188.904 237.629C189.073 237.262 189.345 236.954 189.687 236.74C190.03 236.527 190.427 236.419 190.83 236.43C191.387 236.461 191.91 236.71 192.284 237.124C192.659 237.538 192.855 238.083 192.83 238.64V238.64Z" fill="white"/>
<path opacity="0.2" d="M199.2 238.67C199.22 238.952 199.181 239.235 199.087 239.501C198.992 239.768 198.844 240.012 198.651 240.218C198.459 240.425 198.225 240.59 197.966 240.703C197.707 240.815 197.428 240.873 197.145 240.873C196.862 240.873 196.583 240.815 196.324 240.703C196.064 240.59 195.831 240.425 195.638 240.218C195.446 240.012 195.298 239.768 195.203 239.501C195.109 239.235 195.07 238.952 195.09 238.67C195.07 238.388 195.109 238.105 195.203 237.839C195.298 237.572 195.446 237.328 195.638 237.122C195.831 236.915 196.064 236.75 196.324 236.637C196.583 236.525 196.862 236.467 197.145 236.467C197.428 236.467 197.707 236.525 197.966 236.637C198.225 236.75 198.459 236.915 198.651 237.122C198.844 237.328 198.992 237.572 199.087 237.839C199.181 238.105 199.22 238.388 199.2 238.67V238.67Z" fill="white"/>
<path opacity="0.2" d="M205.58 238.7C205.551 239.102 205.404 239.487 205.158 239.806C204.912 240.126 204.577 240.366 204.196 240.497C203.814 240.628 203.403 240.645 203.012 240.544C202.622 240.444 202.269 240.231 201.998 239.932C201.728 239.632 201.551 239.261 201.49 238.862C201.428 238.463 201.486 238.055 201.654 237.689C201.823 237.322 202.095 237.014 202.437 236.8C202.78 236.587 203.177 236.479 203.58 236.49C204.136 236.524 204.657 236.774 205.031 237.187C205.405 237.6 205.602 238.143 205.58 238.7Z" fill="white"/>
<path opacity="0.2" d="M211.95 238.73C211.921 239.132 211.774 239.517 211.528 239.837C211.282 240.156 210.947 240.396 210.566 240.527C210.184 240.659 209.773 240.675 209.382 240.574C208.992 240.474 208.639 240.261 208.369 239.962C208.098 239.663 207.921 239.291 207.86 238.892C207.799 238.493 207.856 238.085 208.024 237.719C208.193 237.352 208.465 237.044 208.807 236.83C209.15 236.617 209.547 236.509 209.95 236.52C210.507 236.554 211.027 236.804 211.401 237.217C211.775 237.63 211.972 238.173 211.95 238.73Z" fill="white"/>
<path opacity="0.2" d="M218.32 238.75C218.293 239.153 218.147 239.539 217.902 239.86C217.657 240.18 217.323 240.422 216.942 240.555C216.56 240.688 216.148 240.705 215.757 240.606C215.366 240.506 215.012 240.294 214.741 239.995C214.469 239.696 214.291 239.324 214.229 238.925C214.168 238.526 214.224 238.118 214.393 237.751C214.561 237.384 214.833 237.074 215.176 236.861C215.519 236.647 215.917 236.539 216.32 236.55C216.875 236.584 217.394 236.832 217.768 237.243C218.141 237.654 218.34 238.195 218.32 238.75Z" fill="white"/>
<path opacity="0.2" d="M224.7 238.78C224.673 239.181 224.529 239.565 224.286 239.885C224.044 240.205 223.713 240.447 223.334 240.581C222.955 240.716 222.546 240.736 222.156 240.641C221.765 240.546 221.412 240.338 221.138 240.044C220.864 239.75 220.682 239.383 220.614 238.987C220.547 238.591 220.596 238.184 220.757 237.816C220.918 237.448 221.183 237.135 221.519 236.915C221.855 236.695 222.249 236.579 222.65 236.58C223.213 236.601 223.745 236.844 224.13 237.256C224.514 237.669 224.719 238.217 224.7 238.78V238.78Z" fill="white"/>
<path opacity="0.2" d="M231.07 238.81C231.09 239.092 231.051 239.375 230.957 239.641C230.862 239.908 230.714 240.152 230.522 240.358C230.329 240.565 230.096 240.73 229.836 240.843C229.577 240.955 229.298 241.013 229.015 241.013C228.732 241.013 228.453 240.955 228.194 240.843C227.935 240.73 227.701 240.565 227.509 240.358C227.316 240.152 227.168 239.908 227.073 239.641C226.979 239.375 226.94 239.092 226.96 238.81C226.94 238.528 226.979 238.245 227.073 237.979C227.168 237.712 227.316 237.468 227.509 237.262C227.701 237.055 227.935 236.89 228.194 236.777C228.453 236.665 228.732 236.607 229.015 236.607C229.298 236.607 229.577 236.665 229.836 236.777C230.096 236.89 230.329 237.055 230.522 237.262C230.714 237.468 230.862 237.712 230.957 237.979C231.051 238.245 231.09 238.528 231.07 238.81Z" fill="white"/>
<path opacity="0.2" d="M237.44 238.84C237.413 239.241 237.269 239.625 237.027 239.945C236.784 240.265 236.453 240.507 236.074 240.641C235.696 240.776 235.286 240.796 234.896 240.701C234.506 240.606 234.152 240.398 233.878 240.104C233.604 239.81 233.422 239.443 233.355 239.047C233.287 238.651 233.337 238.244 233.497 237.876C233.658 237.508 233.923 237.195 234.259 236.975C234.596 236.755 234.989 236.639 235.39 236.64C235.954 236.661 236.486 236.904 236.87 237.316C237.254 237.729 237.459 238.277 237.44 238.84V238.84Z" fill="white"/>
<path opacity="0.2" d="M243.81 238.87C243.783 239.273 243.638 239.659 243.392 239.98C243.147 240.301 242.813 240.542 242.432 240.675C242.051 240.808 241.639 240.825 241.247 240.726C240.856 240.626 240.503 240.414 240.231 240.115C239.959 239.816 239.782 239.444 239.72 239.045C239.658 238.646 239.714 238.238 239.883 237.871C240.051 237.504 240.323 237.194 240.666 236.981C241.009 236.767 241.407 236.659 241.81 236.67C242.365 236.704 242.884 236.952 243.258 237.363C243.631 237.774 243.83 238.315 243.81 238.87V238.87Z" fill="white"/>
</g>
<path d="M234.76 94.51C235.455 94.2041 236.044 93.7007 236.455 93.0623C236.866 92.424 237.08 91.679 237.07 90.92C237.096 90.4266 237.021 89.9331 236.85 89.4696C236.679 89.006 236.416 88.5822 236.076 88.2238C235.736 87.8654 235.326 87.58 234.872 87.3849C234.418 87.1899 233.929 87.0893 233.435 87.0893C232.941 87.0893 232.452 87.1899 231.998 87.3849C231.544 87.58 231.135 87.8654 230.795 88.2238C230.455 88.5822 230.191 89.006 230.02 89.4696C229.849 89.9331 229.774 90.4266 229.8 90.92C229.785 91.6866 229.997 92.4405 230.41 93.0866C230.823 93.7326 231.418 94.2419 232.12 94.55C226.52 95.39 226.77 101.47 226.77 101.47L240.01 101.53C240.01 101.53 240.32 95.34 234.76 94.51Z" fill="#CC3539"/>
<path opacity="0.1" d="M234.76 94.51C235.455 94.2041 236.044 93.7007 236.455 93.0623C236.866 92.424 237.08 91.679 237.07 90.92C237.096 90.4266 237.021 89.9331 236.85 89.4696C236.679 89.006 236.416 88.5822 236.076 88.2238C235.736 87.8654 235.326 87.58 234.872 87.3849C234.418 87.1899 233.929 87.0893 233.435 87.0893C232.941 87.0893 232.452 87.1899 231.998 87.3849C231.544 87.58 231.135 87.8654 230.795 88.2238C230.455 88.5822 230.191 89.006 230.02 89.4696C229.849 89.9331 229.774 90.4266 229.8 90.92C229.785 91.6866 229.997 92.4405 230.41 93.0866C230.823 93.7326 231.418 94.2419 232.12 94.55C226.52 95.39 226.77 101.47 226.77 101.47L240.01 101.53C240.01 101.53 240.32 95.34 234.76 94.51Z" fill="black"/>
<path d="M256.274 105.451L209.085 105.237L209.059 110.877L256.249 111.091L256.274 105.451Z" fill="#CC3539"/>
<path opacity="0.2" d="M256.274 105.451L209.085 105.237L209.059 110.877L256.249 111.091L256.274 105.451Z" fill="white"/>
<path d="M82.7905 134.68H82.3205L80.9605 134.78C80.2245 134.824 79.4927 134.921 78.7705 135.07C78.3028 135.136 77.8388 135.226 77.3805 135.34L75.8305 135.77C73.1924 136.579 70.7033 137.812 68.4605 139.42C65.4974 141.571 63.0232 144.324 61.2005 147.5C60.1293 149.331 59.2768 151.281 58.6605 153.31C58.013 155.516 57.6402 157.793 57.5505 160.09C57.4909 161.297 57.511 162.506 57.6105 163.71C57.6105 164.32 57.7805 164.93 57.8605 165.55C57.9278 166.175 58.0449 166.794 58.2105 167.4C59.1098 171.413 60.9343 175.16 63.5386 178.342C66.143 181.525 69.455 184.055 73.2105 185.73C75.9286 186.903 78.842 187.557 81.8005 187.66C84.8563 187.828 87.915 187.39 90.8005 186.37L91.6805 186.04H91.8005L91.9005 186.1L104.511 192.5L104.141 192.82C102.791 188.64 101.491 184.59 100.231 180.7V180.55L100.341 180.44C103.4 177.359 105.67 173.586 106.961 169.44C108.129 165.65 108.47 161.653 107.961 157.72C107.507 154.225 106.383 150.849 104.651 147.78C103.157 145.143 101.23 142.777 98.9505 140.78C97.07 139.199 94.9886 137.875 92.7605 136.84C91.0747 136.113 89.3189 135.56 87.5205 135.19L85.5205 134.86L84.0705 134.75L83.1905 134.69H82.8905C82.9902 134.679 83.0909 134.679 83.1905 134.69H84.0805L85.5305 134.75L87.5305 135.04C89.3513 135.383 91.131 135.916 92.8405 136.63C95.1069 137.652 97.2258 138.974 99.1405 140.56C101.462 142.548 103.43 144.915 104.961 147.56C106.743 150.662 107.901 154.083 108.371 157.63C108.922 161.624 108.605 165.69 107.441 169.55C106.142 173.782 103.836 177.635 100.721 180.78L100.781 180.52C102.041 184.41 103.351 188.46 104.711 192.63L104.901 193.24L104.331 192.95L91.7205 186.56H91.9405L91.0405 186.89C88.0995 187.925 84.9841 188.373 81.8705 188.21C78.8482 188.095 75.8739 187.417 73.1005 186.21C67.8102 183.944 63.4088 180.007 60.5705 175C59.2645 172.688 58.3106 170.194 57.7405 167.6C57.5844 166.978 57.4675 166.347 57.3905 165.71C57.3105 165.08 57.1805 164.46 57.1505 163.84C56.8799 160.282 57.256 156.704 58.2605 153.28C58.8921 151.223 59.7684 149.248 60.8705 147.4C62.7367 144.196 65.2624 141.424 68.2805 139.27C70.5602 137.658 73.0911 136.435 75.7705 135.65L77.3405 135.25C77.8026 135.143 78.2699 135.059 78.7405 135C79.4702 134.865 80.2089 134.785 80.9505 134.76L82.3205 134.71C82.4763 134.689 82.6334 134.679 82.7905 134.68Z" fill="#CC3539"/>
<path d="M88.4905 158H86.6405L82.6405 152.38V148.69C82.6405 148.69 79.7805 148.51 80.1205 153.34C80.4605 158.17 80.1205 156.94 80.1205 156.94C80.1205 156.94 74.0505 156.94 73.5505 157.49C73.0505 158.04 73.0205 163.9 72.9505 167.17C72.9121 167.958 73.1383 168.737 73.5931 169.382C74.0479 170.027 74.7051 170.501 75.4605 170.73C75.6722 170.789 75.8908 170.819 76.1105 170.82C77.6305 170.82 85.3605 169.59 85.3605 169.59H88.5505L88.4905 158Z" fill="#CC3539"/>
<path d="M93.7805 157.01L92.6405 169.65H89.4805V157.27L93.7805 157.01Z" fill="#CC3539"/>
<path d="M131.471 414.34V405.79L116.141 405.68L116.011 418.61L116.961 418.68C121.191 418.95 138.481 419.35 141.321 418.47C144.481 417.49 131.471 414.34 131.471 414.34Z" fill="#CC3539"/>
<path d="M141.681 417.67C141.681 417.81 135.941 417.93 128.871 417.93C121.801 417.93 116.061 417.81 116.061 417.67C116.061 417.53 121.801 417.41 128.871 417.41C135.941 417.41 141.681 417.53 141.681 417.67Z" fill="#263238"/>
<path d="M131.741 416.09C131.611 416.02 131.741 415.57 132.051 415.09C132.361 414.61 132.781 414.41 132.881 414.51C132.981 414.61 132.771 414.99 132.471 415.4C132.171 415.81 131.871 416.16 131.741 416.09Z" fill="#263238"/>
<path d="M132.721 416.65C132.581 416.65 132.651 416.09 132.951 415.56C133.251 415.03 133.651 414.71 133.761 414.79C133.871 414.87 133.691 415.32 133.411 415.79C133.131 416.26 132.851 416.7 132.721 416.65Z" fill="#263238"/>
<path d="M120.68 417.63C120.62 417.63 120.39 417.45 120.06 417.07C119.657 416.582 119.208 416.133 118.72 415.73C118.24 415.346 117.667 415.095 117.06 415C116.59 414.94 116.29 415 116.26 414.94C116.23 414.88 116.52 414.67 117.07 414.63C117.796 414.615 118.504 414.855 119.07 415.31C119.6 415.742 120.048 416.267 120.39 416.86C120.62 417.3 120.74 417.59 120.68 417.63Z" fill="#263238"/>
<path d="M131.79 414.48C131.86 414.6 131.6 414.9 131.16 415.06C130.72 415.22 130.33 415.16 130.31 415.06C130.29 414.96 130.6 414.75 130.98 414.61C131.36 414.47 131.71 414.36 131.79 414.48Z" fill="#263238"/>
<path d="M131.55 413.65C131.55 413.8 131.15 413.92 130.63 413.93C130.11 413.94 129.7 413.82 129.71 413.68C129.72 413.54 130.13 413.41 130.63 413.4C131.13 413.39 131.53 413.51 131.55 413.65Z" fill="#263238"/>
<path d="M169.221 414.34V405.79L153.891 405.68L153.761 418.48L154.711 418.55C158.941 418.82 176.241 419.35 179.071 418.47C182.231 417.49 169.221 414.34 169.221 414.34Z" fill="#CC3539"/>
<path d="M179.43 417.69C179.43 417.83 173.7 417.95 166.62 417.95C159.54 417.95 153.82 417.83 153.82 417.69C153.82 417.55 159.55 417.43 166.62 417.43C173.69 417.43 179.43 417.55 179.43 417.69Z" fill="#263238"/>
<path d="M169.49 416.09C169.37 416.02 169.49 415.57 169.8 415.09C170.11 414.61 170.53 414.41 170.63 414.51C170.73 414.61 170.52 414.99 170.22 415.4C169.92 415.81 169.62 416.16 169.49 416.09Z" fill="#263238"/>
<path d="M170.471 416.65C170.341 416.65 170.401 416.09 170.711 415.56C171.021 415.03 171.411 414.71 171.521 414.79C171.631 414.87 171.441 415.32 171.161 415.79C170.881 416.26 170.611 416.7 170.471 416.65Z" fill="#263238"/>
<path d="M158.43 417.63C158.37 417.63 158.15 417.45 157.81 417.07C157.407 416.582 156.958 416.133 156.47 415.73C155.99 415.346 155.417 415.095 154.81 415C154.35 414.94 154.04 415 154.01 414.94C153.98 414.88 154.27 414.67 154.82 414.63C155.546 414.615 156.254 414.855 156.82 415.31C157.353 415.739 157.801 416.265 158.14 416.86C158.37 417.3 158.49 417.59 158.43 417.63Z" fill="#263238"/>
<path d="M169.54 414.48C169.61 414.6 169.35 414.9 168.91 415.06C168.47 415.22 168.08 415.16 168.06 415.06C168.04 414.96 168.35 414.75 168.73 414.61C169.11 414.47 169.46 414.36 169.54 414.48Z" fill="#263238"/>
<path d="M169.32 413.65C169.32 413.8 168.92 413.92 168.4 413.93C167.88 413.94 167.48 413.82 167.49 413.68C167.5 413.54 167.9 413.41 168.4 413.4C168.9 413.39 169.32 413.51 169.32 413.65Z" fill="#263238"/>
<path d="M225.7 160.44C225.3 160.03 224.31 160.23 224.31 160.23C224.41 159.654 224.41 159.066 224.31 158.49C224.13 157.93 222.87 158.04 222.87 158.04C222.812 157.568 222.812 157.092 222.87 156.62C222.88 156.515 222.858 156.41 222.806 156.319C222.754 156.228 222.675 156.155 222.58 156.11C221.984 155.867 221.344 155.751 220.7 155.77C219.93 155.22 223.05 150.85 224.21 149.45C225.37 148.05 225.16 146.96 224.13 146.96C223.42 146.96 219.78 151.16 218.66 152.57C217.54 153.98 214.57 157.9 214.47 154.77C214.37 151.64 213.11 149.28 212.32 148.88C211.53 148.48 210.69 149.42 211.12 150.29C211.498 151.278 211.734 152.315 211.82 153.37C211.929 154.21 211.892 155.063 211.71 155.89C211.379 157.43 210.927 158.941 210.36 160.41H210.28C210.28 160.41 188.46 181.34 186.88 182.83C185.47 184.17 157.11 181.24 151.42 180.64C149.487 180.357 147.534 180.223 145.58 180.24C143.11 180.35 142.67 180.7 140.21 180.73C133.998 180.799 127.8 181.344 121.67 182.36C118.895 182.832 116.302 184.057 114.176 185.901C112.049 187.746 110.47 190.139 109.61 192.82C103.88 210.72 90.9003 253.09 88.6103 276.89C86.8798 280.028 85.3176 283.256 83.9303 286.56C82.3203 290.94 82.7103 291.09 83.2503 291.19C84.7103 291.46 86.3703 283.6 86.9903 285.5C87.6103 287.4 83.8403 294.87 85.3703 295.09C87.3703 295.37 88.9603 287.09 89.1503 286.43C89.3403 285.77 90.3303 285.98 90.1503 286.6C89.8603 287.48 87.0503 296.81 89.0103 297.11C90.0903 297.27 90.2103 295.3 90.2103 295.3C90.2103 295.3 92.2103 286.37 93.1203 286.55C94.0303 286.73 93.0603 292 92.6003 293.76C92.1403 295.52 92.7803 296.41 93.7203 295.98C94.3603 295.68 95.8903 290.33 96.3103 288.59C96.7303 286.85 97.7803 282.03 99.1903 284.82C100.6 287.61 102.74 289.23 103.62 289.27C103.819 289.247 104.005 289.165 104.157 289.035C104.308 288.905 104.418 288.733 104.47 288.541C104.523 288.348 104.517 288.144 104.453 287.955C104.389 287.766 104.269 287.601 104.11 287.48C103.353 286.741 102.704 285.899 102.18 284.98C101.714 284.264 101.375 283.472 101.18 282.64C100.777 280.981 100.543 279.286 100.48 277.58L100.32 276.58C102.56 265.49 109.01 232.94 118.32 212.15L122.14 220.01L123.8 225.83L113.62 250.96L157.04 250.39L150.56 225.45L158.43 199.45C166.94 199.64 188.79 199.96 192.43 198.31C197.01 196.31 220.7 166.39 220.7 166.39C222.244 165.19 223.723 163.908 225.13 162.55C225.13 162.55 226.57 161.34 225.7 160.44Z" fill="#FFBE9D"/>
<path d="M111.71 232.39C112.97 228.09 119.44 206.83 119.44 206.83C119.44 206.83 122.62 224.16 121.78 226.25C121.008 228.039 120.095 229.765 119.05 231.41C111.71 242.58 112.67 248.17 112.67 248.17L157.02 246.82C157.12 240.62 153.45 226.2 152.69 223.9C151.93 221.6 154.46 214.07 154.46 214.07C154.46 214.07 159.46 208.98 159.28 206.36C159.185 204.007 158.894 201.665 158.41 199.36L185.41 200.36L184.56 182.06L145.78 178.18C144.43 181.99 132.22 180.12 132.22 180.12C119.04 180.56 118.22 182.98 112.74 187.24C107.26 191.5 98.1904 228.06 98.1904 228.06L111.71 232.39Z" fill="#CC3539"/>
<path d="M137.93 228.06C137.162 228.197 136.379 228.238 135.6 228.18C134.15 228.18 132.16 228.08 129.97 227.86C127.78 227.64 125.8 227.33 124.39 227.05C123.613 226.95 122.85 226.755 122.12 226.47C122.902 226.47 123.682 226.544 124.45 226.69C125.87 226.87 127.84 227.12 130.02 227.34C132.2 227.56 134.18 227.71 135.61 227.81C136.39 227.82 137.166 227.904 137.93 228.06V228.06Z" fill="#263238"/>
<path d="M140.97 224.29C140.201 224.667 139.388 224.945 138.55 225.12C134.561 226.168 130.444 226.656 126.32 226.57C125.467 226.598 124.613 226.517 123.78 226.33C124.623 226.224 125.472 226.18 126.32 226.2C127.89 226.15 130.05 226.04 132.43 225.76C134.81 225.48 136.93 225.08 138.43 224.76C139.263 224.537 140.113 224.38 140.97 224.29V224.29Z" fill="#263238"/>
<path d="M155.89 207.47C155.87 208.232 155.766 208.99 155.58 209.73C155.32 211.12 154.92 213.02 154.41 215.1C153.9 217.18 153.41 219.1 152.97 220.4C152.794 221.144 152.532 221.865 152.19 222.55C152.246 221.79 152.387 221.039 152.61 220.31C152.99 218.75 153.42 216.95 153.9 214.98C154.38 213.01 154.84 211.21 155.22 209.65C155.356 208.899 155.581 208.167 155.89 207.47V207.47Z" fill="#263238"/>
<path d="M112.18 229.84C109.867 229.483 107.584 228.951 105.35 228.25C103.068 227.716 100.829 227.014 98.6504 226.15C100.963 226.513 103.245 227.044 105.48 227.74C107.763 228.272 110.003 228.974 112.18 229.84V229.84Z" fill="#263238"/>
<path d="M158.89 199.14C158.513 199.205 158.127 199.205 157.75 199.14C156.705 199.033 155.68 198.787 154.7 198.41C153.064 197.795 151.575 196.845 150.328 195.621C149.081 194.396 148.104 192.924 147.46 191.3C146.748 189.513 146.444 187.59 146.57 185.67C146.614 184.087 147.088 182.545 147.94 181.21C148.539 180.31 149.434 179.649 150.47 179.34C150.747 179.264 151.033 179.227 151.32 179.23C151.52 179.23 151.62 179.23 151.62 179.23C151.62 179.23 151.2 179.23 150.53 179.5C149.58 179.851 148.774 180.509 148.24 181.37C146.88 183.51 146.5 187.42 147.95 191.07C148.625 192.791 149.681 194.336 151.04 195.59C152.153 196.616 153.435 197.441 154.83 198.03C156.139 198.547 157.5 198.919 158.89 199.14V199.14Z" fill="#263238"/>
<path d="M182.201 200C181.951 196.933 181.87 193.855 181.961 190.78C181.882 187.707 181.976 184.632 182.241 181.57C182.491 184.633 182.571 187.708 182.481 190.78C182.565 193.856 182.471 196.935 182.201 200V200Z" fill="#263238"/>
<path d="M145.52 179.3C145.63 177.07 145.86 174.55 145.86 174.55C145.86 174.55 151.38 173.94 151.71 168.24C152.04 162.54 151.71 149.39 151.71 149.39L141.71 144.27L130.61 153L132.32 181.5L142.5 182.15C143.278 182.172 144.033 181.884 144.6 181.349C145.166 180.815 145.497 180.078 145.52 179.3V179.3Z" fill="#FFBE9D"/>
<path d="M146.51 163.73C146.51 163.73 146.51 163.84 146.42 163.97C146.345 164.064 146.249 164.139 146.139 164.188C146.03 164.237 145.91 164.258 145.79 164.25C145.15 164.25 144.53 163.51 144.31 162.65C144.205 162.233 144.205 161.797 144.31 161.38C144.33 161.198 144.396 161.024 144.501 160.874C144.606 160.724 144.746 160.602 144.91 160.52C145.044 160.464 145.195 160.464 145.33 160.52C145.43 160.57 145.51 160.65 145.56 160.75C145.63 160.92 145.56 161.03 145.56 161.02C145.56 161.01 145.56 160.92 145.46 160.82C145.408 160.748 145.331 160.699 145.244 160.68C145.157 160.662 145.067 160.676 144.99 160.72C144.867 160.794 144.765 160.898 144.694 161.022C144.622 161.146 144.583 161.287 144.58 161.43C144.496 161.802 144.496 162.188 144.58 162.56C144.78 163.34 145.32 163.97 145.8 164.03C145.894 164.043 145.989 164.036 146.08 164.01C146.172 163.984 146.257 163.94 146.33 163.88C146.45 163.8 146.49 163.72 146.51 163.73Z" fill="#EB996E"/>
<path d="M155.14 146.31C154.37 143.69 151.58 142.39 149.04 141.67C145.17 140.57 140.99 140.09 137.21 141.48C133.43 142.87 128.89 145.31 128.89 149.48C126.66 149.3 125.38 151.25 124.5 153.67C123.937 155.144 123.6 156.695 123.5 158.27V158.27C123.22 163.73 121.69 171.27 118.15 175.27C116.15 177.5 113.38 179.04 112.24 181.82C111.24 184.23 111.76 187.09 110.83 189.53C110 191.68 108.17 193.21 106.83 195.08C105.465 197.201 104.661 199.635 104.495 202.152C104.329 204.669 104.806 207.188 105.88 209.47C106.962 211.694 108.486 213.674 110.358 215.29C112.23 216.906 114.412 218.124 116.77 218.87C121.441 220.291 126.422 220.34 131.12 219.01C134.646 218.167 137.935 216.536 140.74 214.24C143.61 211.896 145.582 208.632 146.32 205C147.03 200.92 145.89 196.77 145.04 192.71C142.38 179.88 143.14 179.21 146.5 167.3C146.58 167.09 146.62 166.87 146.68 166.66C146.74 166.45 146.77 166.35 146.81 166.19C146.905 165.719 146.956 165.24 146.96 164.76C146.469 164.942 145.937 164.981 145.425 164.871C144.913 164.761 144.443 164.508 144.07 164.14C143.696 163.748 143.436 163.262 143.316 162.734C143.197 162.206 143.222 161.655 143.39 161.14C143.626 160.577 143.978 160.07 144.422 159.651C144.866 159.232 145.394 158.912 145.97 158.71C147.08 158.25 148.27 158.01 149.36 157.5C151.67 156.4 153.27 154.12 154.36 151.73C155.256 150.074 155.533 148.152 155.14 146.31V146.31Z" fill="#263238"/>
<path d="M146.91 164C147.122 164.312 147.296 164.648 147.43 165C147.73 165.63 148.13 166.52 148.57 167.55L148.65 167.74H148.44L147.44 167.83C146.75 167.83 146.17 167.96 145.49 167.95C145.431 167.937 145.376 167.909 145.331 167.868C145.285 167.828 145.251 167.777 145.23 167.72C145.201 167.629 145.201 167.531 145.23 167.44C145.253 167.305 145.284 167.172 145.32 167.04L145.5 166.33C145.591 165.856 145.732 165.394 145.92 164.95C145.902 165.433 145.831 165.912 145.71 166.38L145.57 167.09C145.52 167.33 145.43 167.7 145.57 167.67C146.07 167.67 146.78 167.56 147.44 167.52L148.44 167.43L148.31 167.65C147.88 166.65 147.52 165.71 147.31 165.06C147.126 164.728 146.991 164.371 146.91 164V164Z" fill="#CC3539"/>
<path d="M112.67 248.17L157.02 246.82L176.32 322.16L172.77 408.58H149.32L152.19 324L135.04 271.55L137.68 411.93L113.98 412.28L111.49 280.33C111.38 276.66 110.18 268.39 110.63 264.75L112.67 248.17Z" fill="#263238"/>
<path d="M140.94 272.62C140.215 272.666 139.486 272.622 138.77 272.49C137.43 272.33 135.6 272.05 133.59 271.65C131.58 271.25 129.78 270.79 128.48 270.42C127.786 270.267 127.113 270.025 126.48 269.7C126.48 269.55 129.74 270.33 133.74 271.14C137.74 271.95 140.96 272.47 140.94 272.62Z" fill="#455A64"/>
<path d="M172.53 403.84C172.53 403.98 167.22 404.1 160.67 404.1C154.12 404.1 148.8 403.98 148.8 403.84C148.8 403.7 154.11 403.58 160.67 403.58C167.23 403.58 172.53 403.69 172.53 403.84Z" fill="#455A64"/>
<path d="M137.47 408.28C137.47 408.43 132.31 408.54 125.95 408.54C119.59 408.54 114.44 408.43 114.44 408.28C114.44 408.13 119.6 408.02 125.95 408.02C132.3 408.02 137.47 408.14 137.47 408.28Z" fill="#455A64"/>
<path d="M134.41 407.92C134.27 407.92 133.65 377.25 133.02 339.42C132.39 301.59 132.02 270.9 132.15 270.9C132.28 270.9 132.92 301.56 133.54 339.41C134.16 377.26 134.56 407.92 134.41 407.92Z" fill="#455A64"/>
<path d="M169.381 403.84C169.37 403.704 169.37 403.566 169.381 403.43V402.23C169.381 401.15 169.461 399.6 169.521 397.63C169.661 393.63 169.861 387.82 170.111 380.7C170.651 366.38 171.411 346.64 172.241 324.85C172.241 324.64 172.241 324.44 172.241 324.26V324.33C166.991 303.33 162.241 284.27 158.791 270.48L154.791 254.17C154.331 252.26 153.981 250.77 153.731 249.73C153.611 249.24 153.531 248.86 153.461 248.57C153.422 248.44 153.398 248.306 153.391 248.17C153.443 248.296 153.483 248.427 153.511 248.56C153.591 248.84 153.691 249.22 153.831 249.7C154.101 250.7 154.491 252.22 154.991 254.12C155.991 257.98 157.401 263.54 159.161 270.39C162.641 284.17 167.441 303.18 172.761 324.21V324.28C172.761 324.46 172.761 324.67 172.761 324.87C171.871 346.66 171.061 366.39 170.471 380.71C170.161 387.84 169.901 393.61 169.721 397.63C169.621 399.63 169.541 401.15 169.491 402.23C169.491 402.74 169.431 403.14 169.421 403.43C169.422 403.568 169.409 403.705 169.381 403.84V403.84Z" fill="#455A64"/>
<path d="M161.73 322.5C160.046 323.054 158.311 323.439 156.55 323.65C154.39 324.02 152.55 324.28 151.72 324.32V324.12C151.99 324.2 152.13 324.25 152.13 324.29C152.13 324.33 151.96 324.29 151.68 324.29H151.08L151.68 324.11C152.46 323.88 154.3 323.5 156.46 323.11C158.192 322.734 159.958 322.53 161.73 322.5Z" fill="#455A64"/>
<path d="M161.32 325.37C159.76 325.441 158.197 325.371 156.65 325.16C155.088 325.128 153.532 324.957 152 324.65C155.125 324.395 158.271 324.638 161.32 325.37V325.37Z" fill="#455A64"/>
<path opacity="0.2" d="M112.48 249.76C113.006 250.434 113.667 250.991 114.422 251.392C115.177 251.794 116.008 252.031 116.86 252.09C118.647 252.302 120.453 252.268 122.23 251.99C133.68 250.72 145.81 249.55 157.02 246.82C142.51 247.63 127.18 247.36 112.67 248.17L112.52 249.41" fill="black"/>
<g opacity="0.2">
<path opacity="0.2" d="M127.431 270.21L135.611 301.95L135.041 271.55L127.431 270.21Z" fill="black"/>
</g>
</svg>
